<svg width="2" height="9" viewBox="0 0 2 9" fill="none" xmlns="http://www.w3.org/2000/svg">
<path d="M0.899414 7C1.35954 7 1.73225 7.37292 1.73242 7.83301C1.73242 8.29325 1.35965 8.66699 0.899414 8.66699C0.439177 8.66699 0.0664062 8.29325 0.0664062 7.83301C0.0665823 7.37292 0.439285 7 0.899414 7ZM0.899414 3.66699C1.35965 3.66699 1.73242 4.03976 1.73242 4.5C1.73242 4.96024 1.35965 5.33301 0.899414 5.33301C0.439177 5.33301 0.0664064 4.96024 0.0664062 4.5C0.0664062 4.03976 0.439177 3.66699 0.899414 3.66699ZM0.899414 0.333008C1.35965 0.333008 1.73242 0.706755 1.73242 1.16699C1.73225 1.62708 1.35954 2 0.899414 2C0.439285 2 0.0665822 1.62708 0.0664062 1.16699C0.0664062 0.706755 0.439177 0.333008 0.899414 0.333008Z" fill="#003988"/>
</svg>
