<svg width="20" height="20" viewBox="0 0 20 20" fill="none" xmlns="http://www.w3.org/2000/svg">
<g clip-path="url(#clip0_2234_21233)">
<path d="M8.33398 8.3335V7.50016C8.33398 6.57969 9.08018 5.8335 10.0007 5.8335V5.8335C10.9211 5.8335 11.6673 6.57969 11.6673 7.50016V8.3335" stroke="#005A9E" stroke-width="1.5" stroke-linecap="round" stroke-linejoin="round"/>
<path d="M11.3327 8.3335H8.66602C7.56145 8.3335 6.66602 9.22893 6.66602 10.3335V11.3335C6.66602 12.4381 7.56144 13.3335 8.66601 13.3335H11.3327C12.4373 13.3335 13.3327 12.4381 13.3327 11.3335V10.3335C13.3327 9.22893 12.4373 8.3335 11.3327 8.3335Z" stroke="#005A9E" stroke-width="1.5" stroke-linecap="round" stroke-linejoin="round"/>
<path d="M18.3327 9.99984C18.3327 5.39746 14.6017 1.6665 9.99935 1.6665C5.39698 1.6665 1.66602 5.39746 1.66602 9.99984C1.66602 14.6022 5.39698 18.3332 9.99935 18.3332C13.2713 18.3332 16.1028 16.4475 17.4665 13.7035" stroke="#005A9E" stroke-width="1.5" stroke-linecap="round"/>
<path d="M18.334 9.99984L15.834 9.1665" stroke="#005A9E" stroke-width="1.5" stroke-linecap="round" stroke-linejoin="round"/>
</g>
<defs>
<clipPath id="clip0_2234_21233">
<rect width="20" height="20" fill="white"/>
</clipPath>
</defs>
</svg>
