<svg width="12" height="12" viewBox="0 0 12 12" fill="none" xmlns="http://www.w3.org/2000/svg">
<path d="M0 6C0 2.68629 2.68629 0 6 0C9.31371 0 12 2.68629 12 6C12 9.31371 9.31371 12 6 12C2.68629 12 0 9.31371 0 6Z" fill="#F44336"/>
<path d="M5.33333 6.14286V1.64286C5.33333 1.47236 5.40357 1.30885 5.5286 1.18829C5.65362 1.06773 5.82319 1 6 1C6.17681 1 6.34638 1.06773 6.47141 1.18829C6.59643 1.30885 6.66667 1.47236 6.66667 1.64286V6.14286C6.66667 6.31335 6.59643 6.47687 6.47141 6.59743C6.34638 6.71799 6.17681 6.78571 6 6.78571C5.82319 6.78571 5.65362 6.71799 5.5286 6.59743C5.40357 6.47687 5.33333 6.31335 5.33333 6.14286ZM7 9.03571C7 9.22643 6.94135 9.41287 6.83147 9.57144C6.72159 9.73002 6.56541 9.85361 6.38268 9.9266C6.19996 9.99958 5.99889 10.0187 5.80491 9.98147C5.61093 9.94426 5.43275 9.85242 5.29289 9.71757C5.15304 9.58271 5.0578 9.41089 5.01922 9.22384C4.98063 9.03678 5.00043 8.8429 5.07612 8.6667C5.15181 8.4905 5.27998 8.3399 5.44443 8.23394C5.60888 8.12798 5.80222 8.07143 6 8.07143C6.26522 8.07143 6.51957 8.17302 6.70711 8.35386C6.89464 8.5347 7 8.77997 7 9.03571Z" fill="white"/>
</svg>
