<svg width="12" height="12" viewBox="0 0 12 12" fill="none" xmlns="http://www.w3.org/2000/svg">
<g clip-path="url(#clip0_6195_618)">
<path d="M0 6C0 2.68629 2.68629 0 6 0C9.31371 0 12 2.68629 12 6C12 9.31371 9.31371 12 6 12C2.68629 12 0 9.31371 0 6Z" fill="#38C172"/>
<path d="M8.85337 3.16291C8.89986 3.2145 8.93673 3.27576 8.96189 3.34319C8.98705 3.41062 9 3.4829 9 3.5559C9 3.62889 8.98705 3.70117 8.96189 3.7686C8.93673 3.83603 8.89986 3.8973 8.85337 3.94888L5.35376 7.83709C5.30733 7.88874 5.2522 7.92971 5.1915 7.95766C5.13081 7.98561 5.06575 8 5.00005 8C4.93435 8 4.8693 7.98561 4.80861 7.95766C4.74791 7.92971 4.69278 7.88874 4.64634 7.83709L3.14651 6.17072C3.0527 6.06649 3 5.92513 3 5.77773C3 5.63033 3.0527 5.48897 3.14651 5.38474C3.24032 5.28052 3.36756 5.22196 3.50022 5.22196C3.63289 5.22196 3.76012 5.28052 3.85393 5.38474L5.00005 6.65883L8.14595 3.16291C8.19238 3.11126 8.24752 3.07029 8.30821 3.04234C8.36891 3.01439 8.43396 3 8.49966 3C8.56536 3 8.63042 3.01439 8.69111 3.04234C8.7518 3.07029 8.80694 3.11126 8.85337 3.16291Z" fill="white"/>
</g>
<defs>
<clipPath id="clip0_6195_618">
<path d="M0 6C0 2.68629 2.68629 0 6 0C9.31371 0 12 2.68629 12 6C12 9.31371 9.31371 12 6 12C2.68629 12 0 9.31371 0 6Z" fill="white"/>
</clipPath>
</defs>
</svg>
