<svg width="20" height="20" viewBox="0 0 20 20" fill="none" xmlns="http://www.w3.org/2000/svg">
<g clip-path="url(#clip0_6141_2962)">
<rect width="20" height="20" rx="6" fill="#F44336"/>
<path d="M9.25 10.75V5.5C9.25 5.30109 9.32902 5.11032 9.46967 4.96967C9.61032 4.82902 9.80109 4.75 10 4.75C10.1989 4.75 10.3897 4.82902 10.5303 4.96967C10.671 5.11032 10.75 5.30109 10.75 5.5V10.75C10.75 10.9489 10.671 11.1397 10.5303 11.2803C10.3897 11.421 10.1989 11.5 10 11.5C9.80109 11.5 9.61032 11.421 9.46967 11.2803C9.32902 11.1397 9.25 10.9489 9.25 10.75ZM11.125 14.125C11.125 14.3475 11.059 14.565 10.9354 14.75C10.8118 14.935 10.6361 15.0792 10.4305 15.1644C10.225 15.2495 9.99875 15.2718 9.78052 15.2284C9.56229 15.185 9.36184 15.0778 9.20451 14.9205C9.04717 14.7632 8.94003 14.5627 8.89662 14.3445C8.85321 14.1262 8.87549 13.9 8.96064 13.6945C9.04578 13.4889 9.18998 13.3132 9.37498 13.1896C9.55999 13.066 9.7775 13 10 13C10.2984 13 10.5845 13.1185 10.7955 13.3295C11.0065 13.5405 11.125 13.8266 11.125 14.125Z" fill="white"/>
</g>
<defs>
<clipPath id="clip0_6141_2962">
<rect width="20" height="20" rx="6" fill="white"/>
</clipPath>
</defs>
</svg>
