<svg width="20" height="20" viewBox="0 0 20 20" fill="none" xmlns="http://www.w3.org/2000/svg">
<g clip-path="url(#clip0_6141_2917)">
<rect width="20" height="20" rx="6" fill="#3183C8"/>
<path d="M12 14.2143C12 14.4227 11.921 14.6225 11.7803 14.7699C11.6397 14.9172 11.4489 15 11.25 15C10.8522 15 10.4706 14.8344 10.1893 14.5397C9.90804 14.245 9.75 13.8453 9.75 13.4286V9.5C9.55109 9.5 9.36032 9.41722 9.21967 9.26987C9.07902 9.12252 9 8.92267 9 8.71429C9 8.5059 9.07902 8.30605 9.21967 8.1587C9.36032 8.01135 9.55109 7.92857 9.75 7.92857C10.1478 7.92857 10.5294 8.09413 10.8107 8.38883C11.092 8.68353 11.25 9.08323 11.25 9.5V13.4286C11.4489 13.4286 11.6397 13.5114 11.7803 13.6587C11.921 13.8061 12 14.0059 12 14.2143ZM9 5.17857C9 4.94547 9.06598 4.71761 9.1896 4.52379C9.31321 4.32998 9.48891 4.17892 9.69448 4.08971C9.90005 4.00051 10.1262 3.97717 10.3445 4.02265C10.5627 4.06812 10.7632 4.18037 10.9205 4.3452C11.0778 4.51002 11.185 4.72002 11.2284 4.94864C11.2718 5.17726 11.2495 5.41424 11.1644 5.62959C11.0792 5.84495 10.935 6.02902 10.75 6.15852C10.565 6.28802 10.3475 6.35714 10.125 6.35714C9.82663 6.35714 9.54048 6.23297 9.32951 6.01195C9.11853 5.79092 9 5.49115 9 5.17857Z" fill="white"/>
</g>
<defs>
<clipPath id="clip0_6141_2917">
<rect width="20" height="20" rx="6" fill="white"/>
</clipPath>
</defs>
</svg>
