<svg width="20" height="20" viewBox="0 0 20 20" fill="none" xmlns="http://www.w3.org/2000/svg">
<g clip-path="url(#clip0_6141_2967)">
<path d="M0 9.6C0 6.23969 0 4.55953 0.653961 3.27606C1.2292 2.14708 2.14708 1.2292 3.27606 0.653961C4.55953 0 6.23969 0 9.6 0H10.4C13.7603 0 15.4405 0 16.7239 0.653961C17.8529 1.2292 18.7708 2.14708 19.346 3.27606C20 4.55953 20 6.23969 20 9.6V10.4C20 13.7603 20 15.4405 19.346 16.7239C18.7708 17.8529 17.8529 18.7708 16.7239 19.346C15.4405 20 13.7603 20 10.4 20H9.6C6.23969 20 4.55953 20 3.27606 19.346C2.14708 18.7708 1.2292 17.8529 0.653961 16.7239C0 15.4405 0 13.7603 0 10.4V9.6Z" fill="#38C172"/>
<path d="M14.281 7.21996C14.3508 7.28962 14.4061 7.37234 14.4438 7.46339C14.4816 7.55443 14.501 7.65203 14.501 7.75059C14.501 7.84915 14.4816 7.94675 14.4438 8.0378C14.4061 8.12884 14.3508 8.21156 14.281 8.28122L9.03104 13.5312C8.96139 13.6009 8.87867 13.6563 8.78762 13.694C8.69657 13.7318 8.59898 13.7512 8.50042 13.7512C8.40186 13.7512 8.30426 13.7318 8.21321 13.694C8.12216 13.6563 8.03945 13.6009 7.96979 13.5312L5.71979 11.2812C5.57906 11.1405 5.5 10.9496 5.5 10.7506C5.5 10.5516 5.57906 10.3607 5.71979 10.22C5.86052 10.0792 6.05139 10.0002 6.25042 10.0002C6.44944 10.0002 6.64031 10.0792 6.78104 10.22L8.50042 11.9403L13.2198 7.21996C13.2894 7.15023 13.3722 7.09491 13.4632 7.05717C13.5543 7.01943 13.6519 7 13.7504 7C13.849 7 13.9466 7.01943 14.0376 7.05717C14.1287 7.09491 14.2114 7.15023 14.281 7.21996Z" fill="white"/>
</g>
<defs>
<clipPath id="clip0_6141_2967">
<path d="M0 9.6C0 6.23969 0 4.55953 0.653961 3.27606C1.2292 2.14708 2.14708 1.2292 3.27606 0.653961C4.55953 0 6.23969 0 9.6 0H10.4C13.7603 0 15.4405 0 16.7239 0.653961C17.8529 1.2292 18.7708 2.14708 19.346 3.27606C20 4.55953 20 6.23969 20 9.6V10.4C20 13.7603 20 15.4405 19.346 16.7239C18.7708 17.8529 17.8529 18.7708 16.7239 19.346C15.4405 20 13.7603 20 10.4 20H9.6C6.23969 20 4.55953 20 3.27606 19.346C2.14708 18.7708 1.2292 17.8529 0.653961 16.7239C0 15.4405 0 13.7603 0 10.4V9.6Z" fill="white"/>
</clipPath>
</defs>
</svg>
