<svg width="28" height="24" viewBox="0 0 28 24" fill="none" xmlns="http://www.w3.org/2000/svg">
<path fill-rule="evenodd" clip-rule="evenodd" d="M11.2907 1.55456C12.4716 -0.518185 15.5286 -0.518189 16.7094 1.55456L26.9389 19.5099C28.0866 21.5244 26.5928 24 24.2296 24H3.7706C1.40736 24 -0.0864465 21.5244 1.06124 19.5099L11.2907 1.55456ZM15.3333 18.6667C15.3333 19.403 14.7364 20 14 20C13.2636 20 12.6667 19.403 12.6667 18.6667C12.6667 17.9303 13.2636 17.3333 14 17.3333C14.7364 17.3333 15.3333 17.9303 15.3333 18.6667ZM15 8C15 7.44772 14.5523 7 14 7C13.4477 7 13 7.44772 13 8V14.6667C13 15.219 13.4477 15.6667 14 15.6667C14.5523 15.6667 15 15.219 15 14.6667V8Z" fill="#F4CA64"/>
</svg>
