<svg width="14" height="14" viewBox="0 0 14 14" fill="none" xmlns="http://www.w3.org/2000/svg">
<g clip-path="url(#clip0_2389_42174)">
<path d="M10.2758 1.85041L10.8062 1.32008L10.8062 1.32008L10.2758 1.85041ZM12.1498 3.72432L11.6194 4.25465L11.6194 4.25465L12.1498 3.72432ZM3.33317 12.8337V13.5837H4.83317V12.8337H3.33317ZM9.1665 12.8337V13.5837H10.6665V12.8337H9.1665ZM8.74984 4.83366C9.16405 4.83366 9.49984 4.49787 9.49984 4.08366C9.49984 3.66945 9.16405 3.33366 8.74984 3.33366L8.74984 4.83366ZM5.24984 3.33366C4.83562 3.33366 4.49984 3.66945 4.49984 4.08366C4.49984 4.49787 4.83562 4.83366 5.24984 4.83366L5.24984 3.33366ZM12.8332 5.37423L12.0832 5.37423L12.0832 10.5003H12.8332H13.5832L13.5832 5.37423H12.8332ZM10.4998 12.8337V12.0837L3.49984 12.0837V12.8337V13.5837L10.4998 13.5837V12.8337ZM1.1665 10.5003H1.9165L1.9165 3.50033H1.1665H0.416504L0.416504 10.5003H1.1665ZM3.49984 1.16699V1.91699L8.62593 1.91699V1.16699V0.416992L3.49984 0.416992V1.16699ZM10.2758 1.85041L9.74552 2.38074L11.6194 4.25465L12.1498 3.72432L12.6801 3.19399L10.8062 1.32008L10.2758 1.85041ZM8.62593 1.16699V1.91699C9.04586 1.91699 9.44859 2.08381 9.74552 2.38074L10.2758 1.85041L10.8062 1.32008C10.2279 0.741843 9.44368 0.416992 8.62593 0.416992V1.16699ZM3.49984 12.8337V12.0837C2.62539 12.0837 1.9165 11.3748 1.9165 10.5003H1.1665H0.416504C0.416504 12.2032 1.79696 13.5837 3.49984 13.5837V12.8337ZM12.8332 10.5003H12.0832C12.0832 11.3748 11.3743 12.0837 10.4998 12.0837V12.8337V13.5837C12.2027 13.5837 13.5832 12.2032 13.5832 10.5003H12.8332ZM12.8332 5.37423H13.5832C13.5832 4.55648 13.2583 3.77222 12.6801 3.19399L12.1498 3.72432L11.6194 4.25465C11.9164 4.55158 12.0832 4.95431 12.0832 5.37423L12.8332 5.37423ZM1.1665 3.50033H1.9165C1.9165 2.62587 2.62539 1.91699 3.49984 1.91699V1.16699V0.416992C1.79696 0.416992 0.416504 1.79745 0.416504 3.50033H1.1665ZM4.08317 12.8337H4.83317L4.83317 9.33366H4.08317H3.33317L3.33317 12.8337H4.08317ZM5.24984 8.16699V8.91699H8.74984V8.16699V7.41699H5.24984V8.16699ZM9.9165 9.33366H9.1665V12.8337H9.9165H10.6665V9.33366H9.9165ZM8.74984 8.16699V8.91699C8.97996 8.91699 9.1665 9.10354 9.1665 9.33366H9.9165H10.6665C10.6665 8.27511 9.80838 7.41699 8.74984 7.41699V8.16699ZM4.08317 9.33366H4.83317C4.83317 9.10354 5.01972 8.91699 5.24984 8.91699V8.16699V7.41699C4.19129 7.41699 3.33317 8.27511 3.33317 9.33366H4.08317ZM8.74984 4.08366L8.74984 3.33366L5.24984 3.33366L5.24984 4.08366L5.24984 4.83366L8.74984 4.83366L8.74984 4.08366Z" fill="#05194A"/>
</g>
<defs>
<clipPath id="clip0_2389_42174">
<rect width="14" height="14" fill="white"/>
</clipPath>
</defs>
</svg>
