<svg width="16" height="16" viewBox="0 0 16 16" fill="none" xmlns="http://www.w3.org/2000/svg">
<g clip-path="url(#clip0_368_22221)">
<path fill-rule="evenodd" clip-rule="evenodd" d="M5 12C6.103 12 7 12.897 7 14C7 15.103 6.103 16 5 16C3.897 16 3 15.103 3 14C3 12.897 3.897 12 5 12ZM11 12C12.103 12 13 12.897 13 14C13 15.103 12.103 16 11 16C9.897 16 9 15.103 9 14C9 12.897 9.897 12 11 12ZM5 6C6.103 6 7 6.897 7 8C7 9.103 6.103 10 5 10C3.897 10 3 9.103 3 8C3 6.897 3.897 6 5 6ZM11 6C12.103 6 13 6.897 13 8C13 9.103 12.103 10 11 10C9.897 10 9 9.103 9 8C9 6.897 9.897 6 11 6ZM5 0C6.103 0 7 0.897 7 2C7 3.103 6.103 4 5 4C3.897 4 3 3.103 3 2C3 0.897 3.897 0 5 0ZM11 0C12.103 0 13 0.897 13 2C13 3.103 12.103 4 11 4C9.897 4 9 3.103 9 2C9 0.897 9.897 0 11 0Z" fill="currentColor"/>
</g>
<defs>
<clipPath id="clip0_368_22221">
<rect width="16" height="16" fill="currentColor"/>
</clipPath>
</defs>
</svg>
