<svg width="16" height="16" viewBox="0 0 16 16" fill="none" xmlns="http://www.w3.org/2000/svg">
<path d="M2.66732 2.66675L13.334 13.3334M9.33398 9.49082C8.98015 9.80751 8.51289 10.0001 8.00065 10.0001C6.89608 10.0001 6.00065 9.10465 6.00065 8.00008C6.00065 7.48784 6.19322 7.02059 6.50991 6.66675M13.0725 10.4052C13.4534 10.0736 13.7941 9.74002 14.0875 9.43135C14.8606 8.61797 14.8606 7.3822 14.0875 6.56881C12.7837 5.19697 10.5443 3.33341 8.00065 3.33341C7.4064 3.33341 6.82876 3.43512 6.27578 3.60851M4.33398 4.53567C3.36161 5.15637 2.53241 5.91794 1.91379 6.56881C1.14072 7.38219 1.14072 8.61797 1.91379 9.43135C3.21765 10.8032 5.45697 12.6667 8.00065 12.6667C9.24604 12.6667 10.4185 12.22 11.4439 11.603" stroke="currentColor" stroke-width="1.5" stroke-linecap="round"/>
</svg>
