<svg width="16" height="16" viewBox="0 0 16 16" fill="none" xmlns="http://www.w3.org/2000/svg">
<path d="M14.0875 6.56865C14.8606 7.38203 14.8606 8.6178 14.0875 9.43119C12.7837 10.803 10.5443 12.6666 8.00065 12.6666C5.45697 12.6666 3.21765 10.803 1.91379 9.43119C1.14072 8.6178 1.14072 7.38203 1.91379 6.56865C3.21765 5.19681 5.45697 3.33325 8.00065 3.33325C10.5443 3.33325 12.7837 5.19681 14.0875 6.56865Z" stroke="currentColor" stroke-width="1.5"/>
<path d="M10.0007 7.99992C10.0007 9.10449 9.10522 9.99992 8.00065 9.99992C6.89608 9.99992 6.00065 9.10449 6.00065 7.99992C6.00065 6.89535 6.89608 5.99992 8.00065 5.99992C9.10522 5.99992 10.0007 6.89535 10.0007 7.99992Z" stroke="currentColor" stroke-width="1.5"/>
</svg>
