<svg width="14" height="14" viewBox="0 0 14 14" fill="none" xmlns="http://www.w3.org/2000/svg">
<path d="M1.77294 3.22015C1.49775 3.52974 1.52564 4.00379 1.83522 4.27898C2.14481 4.55417 2.61886 4.52628 2.89405 4.2167L1.77294 3.22015ZM3.21152 2.73065L2.65096 2.23238L2.65096 2.23238L3.21152 2.73065ZM4.95547 2.73065L5.51603 2.23238L5.51603 2.23238L4.95547 2.73065ZM4.95547 11.2687L5.51603 11.767L4.95547 11.2687ZM6.39405 10.7792C6.66924 10.4696 6.64136 9.99556 6.33177 9.72037C6.02218 9.44518 5.54813 9.47306 5.27294 9.78265L6.39405 10.7792ZM3.21152 11.2687L2.65096 11.767L3.21152 11.2687ZM2.89405 9.78265C2.61886 9.47306 2.14481 9.44518 1.83522 9.72037C1.52564 9.99556 1.49775 10.4696 1.77294 10.7792L2.89405 9.78265ZM2.3335 3.71842L2.89405 4.2167L3.77208 3.22892L3.21152 2.73065L2.65096 2.23238L1.77294 3.22015L2.3335 3.71842ZM4.95547 2.73065L4.39492 3.22892L5.27294 4.2167L5.8335 3.71842L6.39405 3.22015L5.51603 2.23238L4.95547 2.73065ZM4.95547 11.2687L5.51603 11.767L6.39405 10.7792L5.8335 10.2809L5.27294 9.78265L4.39492 10.7704L4.95547 11.2687ZM3.21152 11.2687L3.77208 10.7704L2.89405 9.78265L2.3335 10.2809L1.77294 10.7792L2.65096 11.767L3.21152 11.2687ZM4.95547 11.2687L4.39492 10.7704C4.22917 10.9569 3.93782 10.9569 3.77208 10.7704L3.21152 11.2687L2.65096 11.767C3.41339 12.6247 4.7536 12.6247 5.51603 11.767L4.95547 11.2687ZM3.21152 2.73065L3.77207 3.22892C3.93782 3.04246 4.22917 3.04246 4.39492 3.22892L4.95547 2.73065L5.51603 2.23238C4.7536 1.37464 3.41339 1.37464 2.65096 2.23238L3.21152 2.73065ZM9.91683 5.83301V5.08301C9.36454 5.08301 8.91683 4.63529 8.91683 4.08301H8.16683H7.41683C7.41683 5.46372 8.53612 6.58301 9.91683 6.58301V5.83301ZM11.6668 4.08301H10.9168C10.9168 4.63529 10.4691 5.08301 9.91683 5.08301V5.83301V6.58301C11.2975 6.58301 12.4168 5.46372 12.4168 4.08301H11.6668ZM9.91683 2.33301V3.08301C10.4691 3.08301 10.9168 3.53072 10.9168 4.08301H11.6668H12.4168C12.4168 2.7023 11.2975 1.58301 9.91683 1.58301V2.33301ZM9.91683 2.33301V1.58301C8.53612 1.58301 7.41683 2.7023 7.41683 4.08301H8.16683H8.91683C8.91683 3.53072 9.36454 3.08301 9.91683 3.08301V2.33301ZM9.91683 11.6663V10.9163C9.36454 10.9163 8.91683 10.4686 8.91683 9.91634H8.16683H7.41683C7.41683 11.2971 8.53612 12.4163 9.91683 12.4163V11.6663ZM11.6668 9.91634H10.9168C10.9168 10.4686 10.4691 10.9163 9.91683 10.9163V11.6663V12.4163C11.2975 12.4163 12.4168 11.2971 12.4168 9.91634H11.6668ZM9.91683 8.16634V8.91634C10.4691 8.91634 10.9168 9.36406 10.9168 9.91634H11.6668H12.4168C12.4168 8.53563 11.2975 7.41634 9.91683 7.41634V8.16634ZM9.91683 8.16634V7.41634C8.53612 7.41634 7.41683 8.53563 7.41683 9.91634H8.16683H8.91683C8.91683 9.36406 9.36454 8.91634 9.91683 8.91634V8.16634ZM4.0835 2.33301H3.3335L3.3335 11.6663H4.0835H4.8335L4.8335 2.33301L4.0835 2.33301Z" fill="#05194A"/>
</svg>
