<svg width="14" height="14" viewBox="0 0 14 14" fill="none" xmlns="http://www.w3.org/2000/svg">
<path d="M1.10546 2.75156C0.83027 3.06115 0.858156 3.53521 1.16774 3.81039C1.47733 4.08558 1.95138 4.0577 2.22657 3.74811L1.66602 3.24984L1.10546 2.75156ZM2.66947 2.12095L2.10891 1.62268L2.10891 1.62268L2.66947 2.12095ZM4.66256 2.12095L5.22312 1.62268L5.22312 1.62268L4.66256 2.12095ZM4.66256 11.8787L5.22312 12.377L4.66256 11.8787ZM6.22657 11.2481C6.50176 10.9385 6.47388 10.4645 6.16429 10.1893C5.8547 9.91409 5.38065 9.94198 5.10546 10.2516L5.66602 10.7498L6.22657 11.2481ZM2.66947 11.8787L2.10891 12.377L2.66947 11.8787ZM2.22657 10.2516C1.95138 9.94198 1.47733 9.91409 1.16774 10.1893C0.858156 10.4645 0.83027 10.9385 1.10546 11.2481L1.66602 10.7498L2.22657 10.2516ZM1.66602 3.24984L2.22657 3.74811L3.23003 2.61922L2.66947 2.12095L2.10891 1.62268L1.10546 2.75156L1.66602 3.24984ZM4.66256 2.12095L4.102 2.61922L5.10546 3.74811L5.66602 3.24984L6.22657 2.75156L5.22312 1.62268L4.66256 2.12095ZM4.66256 11.8787L5.22312 12.377L6.22657 11.2481L5.66602 10.7498L5.10546 10.2516L4.102 11.3804L4.66256 11.8787ZM2.66947 11.8787L3.23003 11.3804L2.22657 10.2516L1.66602 10.7498L1.10546 11.2481L2.10891 12.377L2.66947 11.8787ZM4.66256 11.8787L4.102 11.3804C3.86996 11.6415 3.46207 11.6415 3.23003 11.3804L2.66947 11.8787L2.10891 12.377C2.93764 13.3093 4.39439 13.3093 5.22312 12.377L4.66256 11.8787ZM2.66947 2.12095L3.23003 2.61922C3.46207 2.35817 3.86996 2.35817 4.102 2.61922L4.66256 2.12095L5.22312 1.62268C4.39439 0.690356 2.93764 0.690356 2.10891 1.62268L2.66947 2.12095ZM10.3327 5.6665V4.9165C9.64233 4.9165 9.08268 4.35686 9.08268 3.6665H8.33268H7.58268C7.58268 5.18529 8.8139 6.4165 10.3327 6.4165V5.6665ZM12.3327 3.6665H11.5827C11.5827 4.35686 11.023 4.9165 10.3327 4.9165V5.6665V6.4165C11.8515 6.4165 13.0827 5.18529 13.0827 3.6665H12.3327ZM10.3327 1.6665V2.4165C11.023 2.4165 11.5827 2.97615 11.5827 3.6665H12.3327H13.0827C13.0827 2.14772 11.8515 0.916504 10.3327 0.916504V1.6665ZM10.3327 1.6665V0.916504C8.8139 0.916504 7.58268 2.14772 7.58268 3.6665H8.33268H9.08268C9.08268 2.97615 9.64233 2.4165 10.3327 2.4165V1.6665ZM10.3327 12.3332V11.5832C9.64233 11.5832 9.08268 11.0235 9.08268 10.3332H8.33268H7.58268C7.58268 11.852 8.8139 13.0832 10.3327 13.0832V12.3332ZM12.3327 10.3332H11.5827C11.5827 11.0235 11.023 11.5832 10.3327 11.5832V12.3332V13.0832C11.8515 13.0832 13.0827 11.852 13.0827 10.3332H12.3327ZM10.3327 8.33317V9.08317C11.023 9.08317 11.5827 9.64281 11.5827 10.3332H12.3327H13.0827C13.0827 8.81439 11.8515 7.58317 10.3327 7.58317V8.33317ZM10.3327 8.33317V7.58317C8.8139 7.58317 7.58268 8.81439 7.58268 10.3332H8.33268H9.08268C9.08268 9.64281 9.64233 9.08317 10.3327 9.08317V8.33317ZM3.66602 1.6665H2.91602V12.3332H3.66602H4.41602V1.6665H3.66602Z" fill="currentColor"/>
</svg>
