<svg width="55" height="28" viewBox="0 0 55 28" fill="none" xmlns="http://www.w3.org/2000/svg">
<g clip-path="url(#clip0_1031_46102)">
<mask id="path-3-inside-1_1031_46102" fill="white">
<path d="M0.5 0H54.5V28H0.5V0Z"/>
</mask>
<path d="M54.5 0H53.5V28H54.5H55.5V0H54.5Z" fill="#9E9E9E" mask="url(#path-3-inside-1_1031_46102)"/>
<path d="M0.5 0H54.5V7H0.5V0Z" fill="white"/>
<path d="M0.5 7H54.5V14H0.5V7Z" fill="#F3F3F3"/>
<path d="M0.5 14H54.5V21H0.5V14Z" fill="white"/>
<path d="M0.5 21H54.5V28H0.5V21Z" fill="#F3F3F3"/>
</g>
<path d="M8 0.5H47C51.1421 0.5 54.5 3.85786 54.5 8V20C54.5 24.1421 51.1421 27.5 47 27.5H8C3.85786 27.5 0.5 24.1421 0.5 20V8C0.5 3.85786 3.85786 0.5 8 0.5Z" stroke="#9E9E9E"/>
<defs>
<clipPath id="clip0_1031_46102">
<path d="M0 8C0 3.58172 3.58172 0 8 0H47C51.4183 0 55 3.58172 55 8V20C55 24.4183 51.4183 28 47 28H8C3.58172 28 0 24.4183 0 20V8Z" fill="white"/>
</clipPath>
</defs>
</svg>
