<svg width="16" height="17" viewBox="0 0 16 17" fill="none" xmlns="http://www.w3.org/2000/svg">
<path d="M9.4182 2.5H11.3017C11.7066 2.5 12.0922 2.67533 12.3612 2.98178L14.3093 5.201C14.7613 5.71601 14.7882 6.48367 14.3734 7.02984L9.12423 13.9398C8.55679 14.6867 7.44451 14.6867 6.87707 13.9398L1.62795 7.02984C1.21305 6.48367 1.23996 5.71601 1.69205 5.201L3.64011 2.98178C3.90911 2.67533 4.29469 2.5 4.69959 2.5H6.74061M9.4182 2.5L10.8357 6.08857M9.4182 2.5H6.74061M10.8357 6.08857H14.3796M10.8357 6.08857L8.00065 14.3423L5.16556 6.08857M10.8357 6.08857H5.16556M6.74061 2.5L5.16556 6.08857M1.62169 6.08857H5.16556" stroke="currentColor" stroke-linecap="round" stroke-linejoin="round"/>
</svg>
