<svg width="7" height="11" viewBox="0 0 7 11" fill="none" xmlns="http://www.w3.org/2000/svg">
<path d="M2.33301 9.66667C2.33301 9.48985 2.26277 9.32029 2.13775 9.19526C2.01272 9.07024 1.84315 9 1.66634 9C1.48953 9 1.31996 9.07024 1.19494 9.19526C1.06991 9.32029 0.999674 9.48985 0.999674 9.66667C0.999674 9.84348 1.06991 10.013 1.19494 10.1381C1.31996 10.2631 1.48953 10.3333 1.66634 10.3333C1.84315 10.3333 2.01272 10.2631 2.13775 10.1381C2.26277 10.013 2.33301 9.84348 2.33301 9.66667ZM2.33301 5.66667C2.33301 5.48986 2.26277 5.32029 2.13775 5.19526C2.01272 5.07024 1.84315 5 1.66634 5C1.48953 5 1.31996 5.07024 1.19494 5.19526C1.06991 5.32029 0.999674 5.48986 0.999674 5.66667C0.999674 5.84348 1.06991 6.01305 1.19494 6.13807C1.31996 6.26309 1.48953 6.33333 1.66634 6.33333C1.84315 6.33333 2.01272 6.26309 2.13775 6.13807C2.26277 6.01305 2.33301 5.84348 2.33301 5.66667ZM2.33301 1.66667C2.33301 1.48986 2.26277 1.32029 2.13775 1.19526C2.01272 1.07024 1.84315 1 1.66634 1C1.48953 1 1.31996 1.07024 1.19494 1.19526C1.06991 1.32029 0.999674 1.48986 0.999674 1.66667C0.999674 1.84348 1.06991 2.01305 1.19494 2.13807C1.31996 2.2631 1.48953 2.33333 1.66634 2.33333C1.84315 2.33333 2.01272 2.2631 2.13775 2.13807C2.26277 2.01305 2.33301 1.84348 2.33301 1.66667ZM6.33301 9.66667C6.33301 9.48985 6.26277 9.32029 6.13775 9.19526C6.01272 9.07024 5.84315 9 5.66634 9C5.48953 9 5.31996 9.07024 5.19494 9.19526C5.06991 9.32029 4.99967 9.48985 4.99967 9.66667C4.99967 9.84348 5.06991 10.013 5.19494 10.1381C5.31996 10.2631 5.48953 10.3333 5.66634 10.3333C5.84315 10.3333 6.01272 10.2631 6.13775 10.1381C6.26277 10.013 6.33301 9.84348 6.33301 9.66667ZM6.33301 5.66667C6.33301 5.48986 6.26277 5.32029 6.13775 5.19526C6.01272 5.07024 5.84315 5 5.66634 5C5.48953 5 5.31996 5.07024 5.19494 5.19526C5.06991 5.32029 4.99967 5.48986 4.99967 5.66667C4.99967 5.84348 5.06991 6.01305 5.19494 6.13807C5.31996 6.26309 5.48953 6.33333 5.66634 6.33333C5.84315 6.33333 6.01272 6.26309 6.13775 6.13807C6.26277 6.01305 6.33301 5.84348 6.33301 5.66667ZM6.33301 1.66667C6.33301 1.48986 6.26277 1.32029 6.13775 1.19526C6.01272 1.07024 5.84315 1 5.66634 1C5.48953 1 5.31996 1.07024 5.19494 1.19526C5.06991 1.32029 4.99967 1.48986 4.99967 1.66667C4.99967 1.84348 5.06991 2.01305 5.19494 2.13807C5.31996 2.2631 5.48953 2.33333 5.66634 2.33333C5.84315 2.33333 6.01272 2.2631 6.13775 2.13807C6.26277 2.01305 6.33301 1.84348 6.33301 1.66667Z" fill="currentColor" stroke="currentColor" stroke-linecap="round" stroke-linejoin="round"/>
</svg>
