<svg width="14" height="15" viewBox="0 0 14 15" fill="none" xmlns="http://www.w3.org/2000/svg">
<path d="M1.66768 2.178L9.00018 1.2666C9.04152 1.26067 9.08364 1.26369 9.12371 1.27544C9.16378 1.2872 9.20085 1.30742 9.23243 1.33474C9.26401 1.36206 9.28935 1.39584 9.30675 1.4338C9.32415 1.47176 9.33319 1.51301 9.33327 1.55477L9.33327 13.5804C9.33318 13.6221 9.32415 13.6633 9.30678 13.7012C9.28942 13.7391 9.26413 13.7729 9.23262 13.8002C9.20111 13.8275 9.16411 13.8477 9.12411 13.8595C9.08412 13.8713 9.04205 13.8744 9.00077 13.8686L1.6671 12.8215C1.52804 12.8017 1.4008 12.7324 1.30875 12.6263C1.2167 12.5202 1.16602 12.3845 1.16602 12.244L1.16602 2.7555C1.16602 2.61504 1.2167 2.47929 1.30875 2.3732C1.4008 2.26711 1.52863 2.1978 1.66768 2.178ZM3.1918 3.13914C2.69917 3.20954 2.33327 3.63145 2.33327 4.12909L2.33327 10.8704C2.33327 11.368 2.69917 11.79 3.1918 11.8604L7.02514 12.4081C7.62758 12.4942 8.1666 12.0268 8.1666 11.4182V3.5813C8.1666 2.97274 7.62758 2.50527 7.02514 2.59136L3.1918 3.13914ZM9.9166 11.5831H10.6666C11.2189 11.5831 11.6666 11.1354 11.6666 10.5831L11.6666 4.41641C11.6666 3.86413 11.2189 3.41641 10.6666 3.41641L9.9166 3.41641V2.24975L12.2499 2.24975C12.4046 2.24975 12.553 2.3112 12.6624 2.4206C12.7718 2.53 12.8333 2.67837 12.8333 2.83308L12.8333 12.1664C12.8333 12.3211 12.7718 12.4695 12.6624 12.5789C12.553 12.6883 12.4046 12.7498 12.2499 12.7498H9.9166V11.5831ZM5.99008 7.44239C5.96597 7.47682 5.96597 7.52265 5.99007 7.55708L7.47312 9.67572C7.51952 9.742 7.4721 9.83307 7.3912 9.83307H6.23534C6.2027 9.83307 6.17212 9.81715 6.15341 9.79041L5.33186 8.61662C5.29205 8.55974 5.20782 8.55974 5.16801 8.61662L4.34646 9.79041C4.32774 9.81715 4.29716 9.83307 4.26453 9.83307H3.10866C3.02776 9.83307 2.98035 9.742 3.02674 9.67572L4.50979 7.55708C4.53389 7.52265 4.53389 7.47682 4.50979 7.44239L3.02674 5.32376C2.98035 5.25748 3.02776 5.16641 3.10866 5.16641H4.26453C4.29716 5.16641 4.32774 5.18233 4.34646 5.20907L5.16801 6.38285C5.20782 6.43973 5.29205 6.43973 5.33186 6.38285L6.15341 5.20907C6.17212 5.18233 6.2027 5.16641 6.23534 5.16641H7.3912C7.4721 5.16641 7.51952 5.25748 7.47312 5.32376L5.99008 7.44239Z" fill="currentColor"/>
</svg>
