<svg width="16" height="16" viewBox="0 0 16 16" fill="none" xmlns="http://www.w3.org/2000/svg">
<path d="M8.66667 1.33301V3.99967C8.66667 5.47243 9.86057 6.66634 11.3333 6.66634L14 6.66634M2 3.99967L2 11.9997C2 13.4724 3.19391 14.6663 4.66667 14.6663H11.3333C12.8061 14.6663 14 13.4724 14 11.9997V7.77091C14 7.06367 13.719 6.38539 13.219 5.88529L9.44771 2.11406C8.94762 1.61396 8.26934 1.33301 7.5621 1.33301L4.66667 1.33301C3.19391 1.33301 2 2.52692 2 3.99967Z" stroke="currentColor" stroke-width="1.5" stroke-linejoin="round"/>
<path d="M11.5462 10.4055L10.9212 10.4736C10.9035 10.4105 10.8726 10.3512 10.8284 10.2956C10.7855 10.24 10.7274 10.1952 10.6541 10.1611C10.5809 10.127 10.4913 10.11 10.3852 10.11C10.2425 10.11 10.1226 10.1409 10.0254 10.2028C9.9294 10.2647 9.88205 10.3448 9.88332 10.4433C9.88205 10.5279 9.91299 10.5967 9.97612 10.6498C10.0405 10.7028 10.1466 10.7464 10.2943 10.7805L10.7905 10.8865C11.0658 10.9459 11.2703 11.0399 11.4041 11.1687C11.5392 11.2975 11.6074 11.4661 11.6087 11.6744C11.6074 11.8575 11.5538 12.0191 11.4477 12.1592C11.3429 12.2981 11.1971 12.4067 11.0102 12.485C10.8233 12.5633 10.6087 12.6024 10.3663 12.6024C10.0102 12.6024 9.72359 12.5279 9.50642 12.3789C9.28925 12.2287 9.15983 12.0197 9.11816 11.752L9.78672 11.6876C9.81703 11.819 9.88142 11.9181 9.97991 11.985C10.0784 12.0519 10.2065 12.0854 10.3644 12.0854C10.5273 12.0854 10.6579 12.0519 10.7564 11.985C10.8562 11.9181 10.906 11.8354 10.906 11.7369C10.906 11.6536 10.8738 11.5847 10.8095 11.5305C10.7463 11.4762 10.6478 11.4345 10.514 11.4055L10.0178 11.3013C9.73874 11.2432 9.53231 11.1453 9.39847 11.0077C9.26463 10.8688 9.19834 10.6933 9.1996 10.4812C9.19834 10.3019 9.24695 10.1466 9.34544 10.0153C9.44518 9.88272 9.58344 9.78045 9.76021 9.70848C9.93824 9.63525 10.1434 9.59863 10.3757 9.59863C10.7166 9.59863 10.985 9.67123 11.1807 9.81644C11.3776 9.96164 11.4995 10.158 11.5462 10.4055Z" fill="currentColor"/>
<path d="M8.54205 8.66699V12.5458H7.85645V8.66699H8.54205Z" fill="currentColor"/>
<path d="M5.41699 9.63672L6.00411 10.7106L6.6007 9.63672H7.32608L6.44919 11.0913L7.34124 12.5458H6.61964L6.00411 11.4985L5.39427 12.5458H4.66699L5.55336 11.0913L4.68972 9.63672H5.41699Z" fill="currentColor"/>
</svg>
