<svg width="14" height="14" viewBox="0 0 14 14" fill="none" xmlns="http://www.w3.org/2000/svg">
<path d="M1.75 4.08301H4.66667M11.0833 4.08301H12.25M11.0833 4.08301C11.0833 5.04951 10.2998 5.83301 9.33333 5.83301H8.16667C7.20017 5.83301 6.41667 5.04951 6.41667 4.08301C6.41667 3.11651 7.20017 2.33301 8.16667 2.33301L9.33333 2.33301C10.2998 2.33301 11.0833 3.11651 11.0833 4.08301ZM9.33333 9.91634H12.25M1.75 9.91634H2.91667M2.91667 9.91634C2.91667 10.8828 3.70017 11.6663 4.66667 11.6663H5.83333C6.79983 11.6663 7.58333 10.8828 7.58333 9.91634C7.58333 8.94984 6.79983 8.16634 5.83333 8.16634H4.66667C3.70017 8.16634 2.91667 8.94984 2.91667 9.91634Z" stroke="currentColor" stroke-width="1.5" stroke-linecap="round"/>
</svg>
