<svg width="14" height="14" viewBox="0 0 14 14" fill="none" xmlns="http://www.w3.org/2000/svg">
<g clip-path="url(#clip0_2189_34355)">
<path d="M10.4998 1.16699L10.4998 0.566993L10.4998 1.16699ZM12.8332 3.50033L13.4332 3.50033L13.4332 3.50033L12.8332 3.50033ZM1.1665 3.50033L0.566505 3.50033L1.1665 3.50033ZM3.49984 1.16699L3.49984 1.76699L3.49984 1.16699ZM3.49984 12.8337L3.49984 12.2337L3.49984 12.2337L3.49984 12.8337ZM1.1665 10.5003L1.7665 10.5003L1.1665 10.5003ZM10.4998 12.8337L10.4998 13.4337L10.4998 13.4337L10.4998 12.8337ZM12.8332 10.5003L12.2332 10.5003L12.2332 10.5003L12.8332 10.5003ZM3.48317 12.8337C3.48317 13.165 3.7518 13.4337 4.08317 13.4337C4.41454 13.4337 4.68317 13.165 4.68317 12.8337L3.48317 12.8337ZM4.68317 1.16699C4.68317 0.835621 4.41454 0.566992 4.08317 0.566992C3.7518 0.566992 3.48317 0.835621 3.48317 1.16699L4.68317 1.16699ZM9.91651 9.31699L9.31651 9.31699L9.3165 10.517L9.9165 10.517L9.91651 9.31699ZM12.2498 10.517L12.8498 10.517L12.8498 9.31699L12.2498 9.31699L12.2498 10.517ZM1.74984 9.31699L1.14984 9.31699L1.14984 10.517L1.74984 10.517L1.74984 9.31699ZM4.08317 10.517L4.68317 10.517L4.68317 9.31699L4.08317 9.31699L4.08317 10.517ZM9.91651 3.48366L9.31651 3.48366L9.3165 4.68366L9.9165 4.68366L9.91651 3.48366ZM12.2498 4.68366L12.8498 4.68366L12.8498 3.48366L12.2498 3.48366L12.2498 4.68366ZM12.2498 7.60033L12.8498 7.60033L12.8498 6.40033L12.2498 6.40033L12.2498 7.60033ZM1.74984 3.48366L1.14984 3.48366L1.14984 4.68366L1.74984 4.68366L1.74984 3.48366ZM4.08317 4.68366L4.68317 4.68366L4.68317 3.48366L4.08317 3.48366L4.08317 4.68366ZM1.74984 6.40033L1.14984 6.40033L1.14984 7.60033L1.74984 7.60033L1.74984 6.40033ZM9.31651 12.8337C9.31651 13.165 9.58513 13.4337 9.91651 13.4337C10.2479 13.4337 10.5165 13.165 10.5165 12.8337L9.31651 12.8337ZM10.5165 1.16699C10.5165 0.835621 10.2479 0.566992 9.9165 0.566992C9.58513 0.566992 9.3165 0.835621 9.3165 1.16699L10.5165 1.16699ZM10.4998 12.8337L10.4998 12.2337L3.49984 12.2337L3.49984 12.8337L3.49984 13.4337L10.4998 13.4337L10.4998 12.8337ZM1.1665 10.5003L1.7665 10.5003L1.7665 3.50033L1.1665 3.50033L0.566505 3.50033L0.566504 10.5003L1.1665 10.5003ZM3.49984 1.16699L3.49984 1.76699L10.4998 1.76699L10.4998 1.16699L10.4998 0.566993L3.49984 0.566992L3.49984 1.16699ZM12.8332 3.50033L12.2332 3.50033L12.2332 10.5003L12.8332 10.5003L13.4332 10.5003L13.4332 3.50033L12.8332 3.50033ZM10.4998 1.16699L10.4998 1.76699C11.4571 1.76699 12.2332 2.54303 12.2332 3.50033L12.8332 3.50033L13.4332 3.50033C13.4332 1.88029 12.1199 0.566993 10.4998 0.566993L10.4998 1.16699ZM1.1665 3.50033L1.7665 3.50033C1.7665 2.54303 2.54254 1.76699 3.49984 1.76699L3.49984 1.16699L3.49984 0.566992C1.8798 0.566992 0.566505 1.88029 0.566505 3.50033L1.1665 3.50033ZM3.49984 12.8337L3.49984 12.2337C2.54254 12.2337 1.7665 11.4576 1.7665 10.5003L1.1665 10.5003L0.566504 10.5003C0.566504 12.1204 1.8798 13.4337 3.49984 13.4337L3.49984 12.8337ZM10.4998 12.8337L10.4998 13.4337C12.1199 13.4337 13.4332 12.1204 13.4332 10.5003L12.8332 10.5003L12.2332 10.5003C12.2332 11.4576 11.4571 12.2337 10.4998 12.2337L10.4998 12.8337ZM4.08317 12.8337L4.68317 12.8337L4.68317 1.16699L4.08317 1.16699L3.48317 1.16699L3.48317 12.8337L4.08317 12.8337ZM9.91651 9.91699L9.9165 10.517L12.2498 10.517L12.2498 9.91699L12.2498 9.31699L9.91651 9.31699L9.91651 9.91699ZM1.74984 9.91699L1.74984 10.517L4.08317 10.517L4.08317 9.91699L4.08317 9.31699L1.74984 9.31699L1.74984 9.91699ZM9.91651 4.08366L9.9165 4.68366L12.2498 4.68366L12.2498 4.08366L12.2498 3.48366L9.91651 3.48366L9.91651 4.08366ZM1.74984 4.08366L1.74984 4.68366L4.08317 4.68366L4.08317 4.08366L4.08317 3.48366L1.74984 3.48366L1.74984 4.08366ZM9.91651 12.8337L10.5165 12.8337L10.5165 1.16699L9.9165 1.16699L9.3165 1.16699L9.31651 12.8337L9.91651 12.8337ZM1.74984 7.00033L1.74984 7.60033L12.2498 7.60033L12.2498 7.00033L12.2498 6.40033L1.74984 6.40033L1.74984 7.00033Z" fill="currentColor"/>
</g>
<defs>
<clipPath id="clip0_2189_34355">
<rect width="14" height="14" fill="currentColor"/>
</clipPath>
</defs>
</svg>
