<svg width="14" height="14" viewBox="0 0 14 14" fill="none" xmlns="http://www.w3.org/2000/svg">
<g clip-path="url(#clip0_2189_3585)">
<path d="M5.24984 5.25033C5.24984 4.28383 6.03334 3.50033 6.99984 3.50033C7.96634 3.50033 8.74984 4.28383 8.74984 5.25033C8.74984 6.01623 8.25782 6.66721 7.57261 6.90444C7.26817 7.00984 6.99984 7.26149 6.99984 7.58366V8.16699M12.8332 7.00033C12.8332 10.222 10.2215 12.8337 6.99984 12.8337C3.77818 12.8337 1.1665 10.222 1.1665 7.00033C1.1665 3.77866 3.77818 1.16699 6.99984 1.16699C10.2215 1.16699 12.8332 3.77866 12.8332 7.00033Z" stroke="currentColor" stroke-width="1.2" stroke-linecap="round"/>
<circle cx="6.99984" cy="9.91634" r="0.583333" fill="currentColor"/>
</g>
<defs>
<clipPath id="clip0_2189_3585">
<rect width="14" height="14" fill="white"/>
</clipPath>
</defs>
</svg>
