<svg width="16" height="17" viewBox="0 0 16 17" fill="none" xmlns="http://www.w3.org/2000/svg">
<path d="M6.66602 7.16699V6.50033C6.66602 5.76395 7.26297 5.16699 7.99935 5.16699V5.16699C8.73573 5.16699 9.33268 5.76395 9.33268 6.50033V7.16699" stroke="currentColor" stroke-linecap="round" stroke-linejoin="round"/>
<path d="M8.66732 7.16699H7.33398C6.22942 7.16699 5.33398 8.06242 5.33398 9.16699C5.33398 10.2716 6.22942 11.167 7.33399 11.167H8.66732C9.77189 11.167 10.6673 10.2716 10.6673 9.16699C10.6673 8.06242 9.77189 7.16699 8.66732 7.16699Z" stroke="currentColor" stroke-linecap="round" stroke-linejoin="round"/>
<path d="M14.6673 8.49967C14.6673 4.81778 11.6826 1.83301 8.00065 1.83301C4.31875 1.83301 1.33398 4.81778 1.33398 8.49967C1.33398 12.1816 4.31875 15.1663 8.00065 15.1663C10.6182 15.1663 12.8834 13.6578 13.9743 11.4626" stroke="currentColor" stroke-linecap="round"/>
<path d="M14.666 8.49967L12.666 7.83301" stroke="currentColor" stroke-linecap="round" stroke-linejoin="round"/>
</svg>
