<svg width="16" height="16" viewBox="0 0 16 16" fill="none" xmlns="http://www.w3.org/2000/svg">
<path d="M8.66667 1.33301V3.99967C8.66667 5.47243 9.86057 6.66634 11.3333 6.66634L14 6.66634M2 3.99967L2 11.9997C2 13.4724 3.19391 14.6663 4.66667 14.6663H11.3333C12.8061 14.6663 14 13.4724 14 11.9997V7.77091C14 7.06367 13.719 6.38539 13.219 5.88529L9.44771 2.11406C8.94762 1.61396 8.26934 1.33301 7.5621 1.33301L4.66667 1.33301C3.19391 1.33301 2 2.52692 2 3.99967Z" stroke="currentColor" stroke-width="1.5" stroke-linejoin="round"/>
<path d="M11.5457 10.4055L10.9207 10.4736C10.903 10.4105 10.8721 10.3512 10.8279 10.2956C10.785 10.24 10.7269 10.1952 10.6537 10.1611C10.5804 10.127 10.4908 10.11 10.3847 10.11C10.242 10.11 10.1221 10.1409 10.0249 10.2028C9.92891 10.2647 9.88156 10.3448 9.88283 10.4433C9.88156 10.5279 9.9125 10.5967 9.97563 10.6498C10.04 10.7028 10.1461 10.7464 10.2938 10.7805L10.79 10.8865C11.0653 10.9459 11.2698 11.0399 11.4037 11.1687C11.5388 11.2975 11.6069 11.4661 11.6082 11.6744C11.6069 11.8575 11.5533 12.0191 11.4472 12.1592C11.3424 12.2981 11.1966 12.4067 11.0097 12.485C10.8229 12.5633 10.6082 12.6024 10.3658 12.6024C10.0097 12.6024 9.7231 12.5279 9.50593 12.3789C9.28876 12.2287 9.15934 12.0197 9.11768 11.752L9.78624 11.6876C9.81654 11.819 9.88093 11.9181 9.97942 11.985C10.0779 12.0519 10.2061 12.0854 10.3639 12.0854C10.5268 12.0854 10.6574 12.0519 10.7559 11.985C10.8557 11.9181 10.9056 11.8354 10.9056 11.7369C10.9056 11.6536 10.8734 11.5847 10.809 11.5305C10.7458 11.4762 10.6473 11.4345 10.5135 11.4055L10.0173 11.3013C9.73826 11.2432 9.53182 11.1453 9.39798 11.0077C9.26414 10.8688 9.19785 10.6933 9.19912 10.4812C9.19785 10.3019 9.24646 10.1466 9.34495 10.0153C9.4447 9.88272 9.58295 9.78045 9.75972 9.70848C9.93775 9.63525 10.1429 9.59863 10.3753 9.59863C10.7162 9.59863 10.9845 9.67123 11.1802 9.81644C11.3771 9.96164 11.499 10.158 11.5457 10.4055Z" fill="currentColor"/>
<path d="M8.54156 8.66699V12.5458H7.85596V8.66699H8.54156Z" fill="currentColor"/>
<path d="M5.4165 9.63672L6.00363 10.7106L6.60022 9.63672H7.3256L6.4487 11.0913L7.34075 12.5458H6.61916L6.00363 11.4985L5.39378 12.5458H4.6665L5.55287 11.0913L4.68923 9.63672H5.4165Z" fill="currentColor"/>
</svg>
