<svg width="20" height="20" viewBox="0 0 20 20" fill="none" xmlns="http://www.w3.org/2000/svg">
<g id="Huge-icon/interface/outline/apps-add">
<path id="Vector" d="M15.0003 1.66675V5.00008M15.0003 5.00008V8.33342M15.0003 5.00008H11.667M15.0003 5.00008H18.3337M3.33366 8.33342H6.66699C7.58747 8.33342 8.33366 7.58722 8.33366 6.66675V3.33341C8.33366 2.41294 7.58747 1.66675 6.66699 1.66675H3.33366C2.41318 1.66675 1.66699 2.41294 1.66699 3.33341V6.66675C1.66699 7.58722 2.41318 8.33342 3.33366 8.33342ZM8.33366 15.0001C8.33366 16.841 6.84128 18.3334 5.00033 18.3334C3.15938 18.3334 1.66699 16.841 1.66699 15.0001C1.66699 13.1591 3.15938 11.6667 5.00033 11.6667C6.84128 11.6667 8.33366 13.1591 8.33366 15.0001ZM13.3337 18.3334H16.667C17.5875 18.3334 18.3337 17.5872 18.3337 16.6667V13.3334C18.3337 12.4129 17.5875 11.6667 16.667 11.6667H13.3337C12.4132 11.6667 11.667 12.4129 11.667 13.3334V16.6667C11.667 17.5872 12.4132 18.3334 13.3337 18.3334Z" stroke="currentColor" stroke-width="1.25" stroke-linecap="round"/>
</g>
</svg>
