<svg width="18" height="18" viewBox="0 0 18 18" fill="none" xmlns="http://www.w3.org/2000/svg">
<g id="arrow move">
<path id="Combo shape" fill-rule="evenodd" clip-rule="evenodd" d="M8.55806 16.9419C8.80214 17.186 9.19786 17.186 9.44194 16.9419L11.9419 14.4419C12.186 14.1979 12.186 13.8021 11.9419 13.5581C11.6979 13.314 11.3021 13.314 11.0581 13.5581L9.625 14.9911V9.625L14.9911 9.625L13.5581 11.0581C13.314 11.3021 13.314 11.6979 13.5581 11.9419C13.8021 12.186 14.1979 12.186 14.4419 11.9419L16.9419 9.44194C17.0592 9.32473 17.125 9.16576 17.125 9C17.125 8.83424 17.0592 8.67527 16.9419 8.55806L14.4419 6.05806C14.1979 5.81398 13.8021 5.81398 13.5581 6.05806C13.314 6.30214 13.314 6.69786 13.5581 6.94194L14.9911 8.375H9.625V3.00888L11.0581 4.44194C11.3021 4.68602 11.6979 4.68602 11.9419 4.44194C12.186 4.19786 12.186 3.80214 11.9419 3.55806L9.44194 1.05806C9.19786 0.813981 8.80214 0.813981 8.55806 1.05806L6.05806 3.55806C5.81398 3.80214 5.81398 4.19786 6.05806 4.44194C6.30214 4.68602 6.69786 4.68602 6.94194 4.44194L8.375 3.00888V8.375H3.00888L4.44194 6.94194C4.68602 6.69787 4.68602 6.30214 4.44194 6.05806C4.19786 5.81398 3.80214 5.81398 3.55806 6.05806L1.05806 8.55806C0.940848 8.67527 0.875 8.83424 0.875 9C0.875 9.16576 0.940848 9.32473 1.05806 9.44194L3.55806 11.9419C3.80214 12.186 4.19786 12.186 4.44194 11.9419C4.68602 11.6979 4.68602 11.3021 4.44194 11.0581L3.00888 9.625L8.375 9.625V14.9911L6.94194 13.5581C6.69786 13.314 6.30214 13.314 6.05806 13.5581C5.81398 13.8021 5.81398 14.1979 6.05806 14.4419L8.55806 16.9419Z" fill="currentColor"/>
</g>
</svg>
