<svg width="20" height="21" viewBox="0 0 20 21" fill="none" xmlns="http://www.w3.org/2000/svg">
<g id="Huge-icon/interface/outline/copy">
<path id="Vector" d="M6.66699 7V5.33333C6.66699 3.49238 8.15938 2 10.0003 2L15.0003 2C16.8413 2 18.3337 3.49238 18.3337 5.33333V10.3333C18.3337 12.1743 16.8413 13.6667 15.0003 13.6667H13.3337M6.66699 7H5.00033C3.15938 7 1.66699 8.49238 1.66699 10.3333V15.3333C1.66699 17.1743 3.15938 18.6667 5.00033 18.6667H10.0003C11.8413 18.6667 13.3337 17.1743 13.3337 15.3333V13.6667M6.66699 7H10.0003C11.8413 7 13.3337 8.49238 13.3337 10.3333V13.6667" stroke="currentColor" stroke-width="1.5" stroke-linejoin="round"/>
</g>
</svg>
