<svg width="20" height="21" viewBox="0 0 20 21" fill="none" xmlns="http://www.w3.org/2000/svg">
<g id="Huge-icon/files and folder/outline/files 01">
<path id="Vector" d="M14.1667 5.33333L14.1667 12C14.1667 13.841 12.6743 15.3333 10.8333 15.3333H5.83333M14.1667 5.33333C14.1667 3.49239 12.6743 2 10.8333 2L8.88071 2C7.99666 2 7.14881 2.35119 6.52369 2.97631L3.47631 6.02369C2.85119 6.64881 2.5 7.49666 2.5 8.38071L2.5 12C2.5 13.8409 3.99238 15.3333 5.83333 15.3333M14.1667 5.33333C16.0076 5.33333 17.5 6.82572 17.5 8.66667V15.3333C17.5 17.1743 16.0076 18.6667 14.1667 18.6667H9.16667C7.32572 18.6667 5.83333 17.1743 5.83333 15.3333M7.5 2L7.5 3.66667C7.5 5.50762 6.00762 7 4.16667 7L2.5 7" stroke="#28303F" stroke-width="1.5" stroke-linejoin="round"/>
</g>
</svg>
