<svg width="18" height="12" viewBox="0 0 18 12" fill="none" xmlns="http://www.w3.org/2000/svg">
<g id="font-size">
<path id="Union" fill-rule="evenodd" clip-rule="evenodd" d="M4.83285 0.708496C5.08516 0.708496 5.31272 0.860207 5.40977 1.09311L9.57643 11.0931C9.7092 11.4117 9.55852 11.7777 9.2399 11.9104C8.92127 12.0432 8.55535 11.8925 8.42259 11.5739L7.19396 8.62516H2.47173L1.2431 11.5739C1.11034 11.8925 0.74442 12.0432 0.425794 11.9104C0.107168 11.7777 -0.0435052 11.4117 0.0892556 11.0931L4.25592 1.09311C4.35297 0.860207 4.58053 0.708496 4.83285 0.708496ZM4.83285 2.9585L6.67312 7.37516H2.99257L4.83285 2.9585ZM17.9578 8.00016V11.3335C17.9578 11.6787 17.678 11.9585 17.3328 11.9585C16.9877 11.9585 16.7078 11.6787 16.7078 11.3335V10.8869C15.9998 11.5515 15.0472 11.9585 13.9995 11.9585C11.8134 11.9585 10.0412 10.1863 10.0412 8.00016C10.0412 5.81404 11.8134 4.04183 13.9995 4.04183C15.0472 4.04183 15.9998 4.44885 16.7078 5.11339V4.66683C16.7078 4.32165 16.9877 4.04183 17.3328 4.04183C17.678 4.04183 17.9578 4.32165 17.9578 4.66683V8.00016ZM16.7078 8.00016C16.7078 9.49593 15.4953 10.7085 13.9995 10.7085C12.5037 10.7085 11.2912 9.49593 11.2912 8.00016C11.2912 6.50439 12.5037 5.29183 13.9995 5.29183C15.4953 5.29183 16.7078 6.50439 16.7078 8.00016Z" fill="currentColor"/>
</g>
</svg>
