<svg width="20" height="21" viewBox="0 0 20 21" fill="none" xmlns="http://www.w3.org/2000/svg">
<g id="Huge-icon/interface/outline/image-circle">
<path id="Vector" d="M18.1876 12.2278C18.2835 11.722 18.3337 11.2 18.3337 10.6663C18.3337 6.06397 14.6027 2.33301 10.0003 2.33301C5.39795 2.33301 1.66699 6.06397 1.66699 10.6663C1.66699 11.2873 1.73491 11.8924 1.86373 12.4747M18.1876 12.2278C17.4566 16.0839 14.069 18.9997 10.0003 18.9997C6.01893 18.9997 2.68966 16.2076 1.86373 12.4747M18.1876 12.2278L15.8845 10.5696C14.6118 9.65329 12.8726 9.74799 11.7069 10.7971L8.29373 13.8689C7.12809 14.918 5.38882 15.0127 4.11616 14.0964L1.86373 12.4747M9.16699 8.16634C9.16699 9.08682 8.4208 9.83301 7.50033 9.83301C6.57985 9.83301 5.83366 9.08682 5.83366 8.16634C5.83366 7.24587 6.57985 6.49967 7.50033 6.49967C8.4208 6.49967 9.16699 7.24587 9.16699 8.16634Z" stroke="currentColor" stroke-width="1.5"/>
</g>
</svg>
