<svg width="14" height="14" viewBox="0 0 14 14" fill="none" xmlns="http://www.w3.org/2000/svg">
<g clip-path="url(#clip0_2078_78099)">
<path d="M5.78032 4.71951C5.48743 4.42661 5.01255 4.42661 4.71966 4.71951C4.42677 5.0124 4.42677 5.48727 4.71966 5.78017L5.78032 4.71951ZM7.82495 6.17488L7.29462 5.64455L7.29462 5.64455L7.82495 6.17488ZM9.28032 5.78017C9.57321 5.48727 9.57321 5.0124 9.28032 4.71951C8.98743 4.42661 8.51255 4.42661 8.21966 4.71951L9.28032 5.78017ZM6.24999 6.4165C6.24999 6.83072 6.58578 7.1665 6.99999 7.1665C7.4142 7.1665 7.74999 6.83072 7.74999 6.4165H6.24999ZM7.74999 3.49984C7.74999 3.08562 7.4142 2.74984 6.99999 2.74984C6.58578 2.74984 6.24999 3.08562 6.24999 3.49984L7.74999 3.49984ZM4.43332 8.04984L3.83332 8.49984L3.83332 8.49984L4.43332 8.04984ZM5.13332 8.98317L5.73332 8.53317L5.73332 8.53317L5.13332 8.98317ZM8.86666 8.98317L8.26666 8.53317L8.26666 8.53317L8.86666 8.98317ZM9.56666 8.04984L8.96666 7.59984L8.96666 7.59984L9.56666 8.04984ZM5.24999 5.24984L4.71966 5.78017L5.6447 6.70521L6.17503 6.17488L6.70536 5.64455L5.78032 4.71951L5.24999 5.24984ZM7.82495 6.17488L8.35528 6.70521L9.28032 5.78017L8.74999 5.24984L8.21966 4.71951L7.29462 5.64455L7.82495 6.17488ZM6.99999 6.4165H7.74999L7.74999 3.49984H6.99999L6.24999 3.49984L6.24999 6.4165H6.99999ZM6.17503 6.17488L5.6447 6.70521C6.39321 7.45371 7.60677 7.45372 8.35528 6.70521L7.82495 6.17488L7.29462 5.64455C7.1319 5.80727 6.86808 5.80727 6.70536 5.64455L6.17503 6.17488ZM12.8333 9.33317H12.0833V11.0832H12.8333H13.5833V9.33317H12.8333ZM11.0833 12.8332V12.0832L2.91666 12.0832V12.8332V13.5832L11.0833 13.5832V12.8332ZM1.16666 11.0832H1.91666L1.91666 9.33317H1.16666H0.416657L0.416657 11.0832H1.16666ZM2.91666 7.58317V8.33317H3.49999V7.58317L3.49999 6.83317H2.91666V7.58317ZM4.43332 8.04984L3.83332 8.49984L4.53332 9.43317L5.13332 8.98317L5.73332 8.53317L5.03332 7.59984L4.43332 8.04984ZM10.5 7.58317V8.33317H11.0833V7.58317V6.83317H10.5V7.58317ZM8.86666 8.98317L9.46666 9.43317L10.1667 8.49984L9.56666 8.04984L8.96666 7.59984L8.26666 8.53317L8.86666 8.98317ZM6.99999 9.9165V10.6665C7.97049 10.6665 8.88436 10.2096 9.46666 9.43317L8.86666 8.98317L8.26666 8.53317C7.96764 8.93186 7.49836 9.1665 6.99999 9.1665V9.9165ZM10.5 7.58317V6.83317C9.8967 6.83317 9.32863 7.11721 8.96666 7.59984L9.56666 8.04984L10.1667 8.49984C10.2453 8.39492 10.3688 8.33317 10.5 8.33317V7.58317ZM5.13332 8.98317L4.53332 9.43317C5.11562 10.2096 6.02949 10.6665 6.99999 10.6665V9.9165V9.1665C6.50162 9.1665 6.03234 8.93186 5.73332 8.53317L5.13332 8.98317ZM3.49999 7.58317V8.33317C3.63114 8.33317 3.75463 8.39492 3.83332 8.49984L4.43332 8.04984L5.03332 7.59984C4.67135 7.11721 4.10327 6.83317 3.49999 6.83317L3.49999 7.58317ZM2.91666 12.8332V12.0832C2.36437 12.0832 1.91666 11.6355 1.91666 11.0832H1.16666H0.416657C0.416657 12.4639 1.53594 13.5832 2.91666 13.5832V12.8332ZM12.8333 11.0832H12.0833C12.0833 11.6355 11.6356 12.0832 11.0833 12.0832V12.8332V13.5832C12.464 13.5832 13.5833 12.4639 13.5833 11.0832H12.8333ZM12.8333 9.33317H13.5833C13.5833 7.95246 12.464 6.83317 11.0833 6.83317V7.58317V8.33317C11.6356 8.33317 12.0833 8.78089 12.0833 9.33317H12.8333ZM1.16666 9.33317H1.91666C1.91666 8.78089 2.36437 8.33317 2.91666 8.33317V7.58317V6.83317C1.53594 6.83317 0.416657 7.95246 0.416657 9.33317H1.16666ZM11.6667 7.58317H12.4167V3.49984H11.6667H10.9167V7.58317H11.6667ZM9.33332 1.1665V0.416504L4.66666 0.416504V1.1665V1.9165L9.33332 1.9165V1.1665ZM2.33332 3.49984H1.58332L1.58332 7.58317H2.33332H3.08332L3.08332 3.49984L2.33332 3.49984ZM4.66666 1.1665V0.416504C2.96378 0.416504 1.58332 1.79696 1.58332 3.49984H2.33332L3.08332 3.49984C3.08332 2.62539 3.79221 1.9165 4.66666 1.9165V1.1665ZM11.6667 3.49984H12.4167C12.4167 1.79696 11.0362 0.416504 9.33332 0.416504V1.1665V1.9165C10.2078 1.9165 10.9167 2.62539 10.9167 3.49984H11.6667Z" fill="currentColor"/>
</g>
<defs>
<clipPath id="clip0_2078_78099">
<rect width="14" height="14" fill="currentColor"/>
</clipPath>
</defs>
</svg>
