<svg width="14" height="14" viewBox="0 0 14 14" fill="none" xmlns="http://www.w3.org/2000/svg">
<g clip-path="url(#clip0_2078_78056)">
<path d="M11.6667 7.58317V3.49984C11.6667 2.21117 10.622 1.1665 9.33335 1.1665L4.66669 1.1665C3.37802 1.1665 2.33335 2.21117 2.33335 3.49984L2.33335 7.58317M12.8334 9.33317V11.0832C12.8334 12.0497 12.0499 12.8332 11.0834 12.8332L2.91669 12.8332C1.95019 12.8332 1.16669 12.0497 1.16669 11.0832L1.16669 9.33317C1.16669 8.36667 1.95019 7.58317 2.91669 7.58317H3.50002C3.86724 7.58317 4.21302 7.75606 4.43335 8.04984L5.13335 8.98317C5.57401 9.57072 6.26559 9.9165 7.00002 9.9165C7.73445 9.9165 8.42603 9.57072 8.86669 8.98317L9.56669 8.04984C9.78702 7.75606 10.1328 7.58317 10.5 7.58317H11.0834C12.0499 7.58317 12.8334 8.36667 12.8334 9.33317Z" stroke="currentColor" stroke-width="1.5" stroke-linejoin="round"/>
</g>
<defs>
<clipPath id="clip0_2078_78056">
<rect width="14" height="14" fill="currentColor"/>
</clipPath>
</defs>
</svg>
