<svg width="16" height="16" viewBox="0 0 16 16" fill="none" xmlns="http://www.w3.org/2000/svg">
<path d="M10.1667 7.86634C10.4931 7.66757 10.7685 7.39529 10.9711 7.0712C11.1736 6.74711 11.2977 6.38019 11.3333 5.99967C11.3395 5.6556 11.2778 5.31367 11.1519 4.99343C11.0259 4.67319 10.838 4.3809 10.5991 4.13327C10.3601 3.88563 10.0747 3.6875 9.75913 3.55019C9.44358 3.41288 9.10407 3.33908 8.75999 3.33301H4.43332V12.6663H9.09999C9.42742 12.6629 9.75096 12.5949 10.0521 12.4664C10.3533 12.3379 10.6262 12.1513 10.8553 11.9172C11.0843 11.6832 11.265 11.4064 11.3871 11.1026C11.5092 10.7987 11.5702 10.4738 11.5667 10.1463V10.0663C11.5669 9.60442 11.4353 9.15202 11.1873 8.76231C10.9393 8.3726 10.5852 8.06177 10.1667 7.86634ZM5.76665 4.66634H8.56665C8.85077 4.65755 9.13077 4.73586 9.3691 4.89078C9.60743 5.04569 9.79268 5.26979 9.89999 5.53301C10.0086 5.88487 9.97345 6.2654 9.80231 6.59144C9.63117 6.91749 9.33792 7.16253 8.98665 7.27301C8.85024 7.31298 8.7088 7.33319 8.56665 7.33301H5.76665V4.66634ZM8.83332 11.333H5.76665V8.66634H8.83332C9.11743 8.65755 9.39744 8.73586 9.63577 8.89078C9.8741 9.04569 10.0593 9.26979 10.1667 9.53301C10.2752 9.88487 10.2401 10.2654 10.069 10.5914C9.89783 10.9175 9.60458 11.1625 9.25332 11.273C9.11691 11.313 8.97547 11.3332 8.83332 11.333Z" fill="#05194A"/>
</svg>
