<svg width="28" height="28" viewBox="0 0 28 28" fill="none" xmlns="http://www.w3.org/2000/svg">
<path fill-rule="evenodd" clip-rule="evenodd" d="M12.8334 3.20849C11.3836 3.20849 10.2084 4.38375 10.2084 5.83349V7.00016H8.45837V5.83349C8.45837 3.41725 10.4171 1.4585 12.8334 1.4585L15.1667 1.4585C17.5829 1.4585 19.5417 3.41725 19.5417 5.83349V7.00016H17.7917V5.83349C17.7917 4.38375 16.6164 3.20849 15.1667 3.20849L12.8334 3.20849Z" fill="currentColor"/>
<path opacity="0.4" d="M2.33337 11.6667C2.33337 9.08934 4.42271 7 7.00004 7L21 7C23.5774 7 25.6667 9.08934 25.6667 11.6667V21C25.6667 23.5773 23.5774 25.6667 21 25.6667L7.00004 25.6667C4.42271 25.6667 2.33337 23.5773 2.33337 21L2.33337 11.6667Z" fill="currentColor"/>
<path fill-rule="evenodd" clip-rule="evenodd" d="M6.125 11.6665C6.125 11.1833 6.51675 10.7915 7 10.7915L21 10.7915C21.4832 10.7915 21.875 11.1833 21.875 11.6665C21.875 12.1498 21.4832 12.5415 21 12.5415L7 12.5415C6.51675 12.5415 6.125 12.1498 6.125 11.6665Z" fill="currentColor"/>
<path fill-rule="evenodd" clip-rule="evenodd" d="M6.125 16.3335C6.125 15.8502 6.51675 15.4585 7 15.4585L21 15.4585C21.4832 15.4585 21.875 15.8502 21.875 16.3335C21.875 16.8167 21.4832 17.2085 21 17.2085H7C6.51675 17.2085 6.125 16.8167 6.125 16.3335Z" fill="currentColor"/>
<path fill-rule="evenodd" clip-rule="evenodd" d="M6.125 21C6.125 20.5168 6.51675 20.125 7 20.125H21C21.4832 20.125 21.875 20.5168 21.875 21C21.875 21.4832 21.4832 21.875 21 21.875H7C6.51675 21.875 6.125 21.4832 6.125 21Z" fill="currentColor"/>
</svg>
