<svg xmlns="http://www.w3.org/2000/svg" width="36" height="37" viewBox="0 0 36 37" fill="none">
  <path d="M9.92644 23.3263L11.707 24.5802C12.2546 24.9664 12.9375 25.1101 13.5949 24.9789C14.2523 24.8469 14.8266 24.4505 15.1837 23.8842L16.7998 21.3138L11.289 17.431L9.41295 19.8188C8.99902 20.3454 8.8193 21.0199 8.91542 21.6829C9.01322 22.3454 9.37885 22.9408 9.92644 23.3263Z" fill="#002344"/>
  <path d="M27.0203 5.06328C27.6902 3.99875 27.4087 2.59813 26.3817 1.87426L26.368 1.86519C25.3404 1.14125 23.9262 1.34882 23.1494 2.33664L11.956 16.582L17.3748 20.3994L27.0203 5.06328Z" fill="#002344"/>
  <path d="M35.4899 31.8551C35.2079 31.8551 34.9798 32.0837 34.9798 32.3657C34.9798 32.6477 35.2079 32.8752 35.4899 32.8752C35.772 32.8752 36 32.6477 36 32.3657C36 32.0837 35.772 31.8551 35.4899 31.8551Z" fill="#002344"/>
  <path d="M32.1627 30.9168C32.4379 30.9168 32.6614 30.6932 32.6614 30.4175C32.6614 30.1434 32.4379 29.9199 32.1627 29.9199C31.8874 29.9199 31.664 30.1433 31.664 30.4175C31.664 30.6932 31.8874 30.9168 32.1627 30.9168Z" fill="#002344"/>
  <path d="M11.5659 31.5059C12.5975 30.0422 12.7578 28.1264 11.9856 26.5074L11.9531 26.4392L8.09311 23.7199L8.01865 23.7125C6.23419 23.53 4.48502 24.326 3.4534 25.7904C2.47535 27.1785 2.11992 28.6934 1.77588 30.1577C1.54153 31.1574 1.2993 32.1918 0.859219 33.1846C0.495844 34.007 0.252422 34.3004 0.250734 34.3015L0 34.5846L0.341156 34.7496C1.93113 35.5161 4.07841 35.6219 6.23187 35.0418C8.49459 34.4317 10.3894 33.1754 11.5659 31.5059ZM9.57277 31.8948C9.51307 31.9347 9.45225 31.9785 9.38791 32.0279C8.68057 32.584 7.75877 32.3446 8.32001 31.2165C8.88012 30.0877 7.89181 29.726 7.0894 30.4675C6.08231 31.3979 5.60974 30.6552 5.79628 30.1417C5.98163 29.6281 6.65093 28.9276 6.09082 28.475C5.75416 28.202 5.3197 28.6012 4.626 29.142C4.22909 29.4508 3.31355 29.3506 3.6843 27.9774C3.88561 27.4661 4.13353 26.9737 4.46505 26.5028C5.18506 25.4804 6.40589 24.8798 7.65752 24.9276L10.9637 27.2557C11.43 28.4192 11.2742 29.7703 10.5543 30.7928C10.2774 31.1852 9.94753 31.5554 9.57277 31.8948Z" fill="#0082FD"/>
  <path d="M33.1709 31.5776H23.8746C23.8586 31.544 23.8478 31.507 23.8478 31.4672C23.8478 31.403 23.874 31.3455 23.9132 31.3H29.6459C30.0571 31.3 30.3896 30.9679 30.3896 30.5562C30.3896 30.1456 30.0571 29.8129 29.6459 29.8129H13.9054C13.927 30.8957 13.616 31.9778 12.9722 32.8916C12.1835 34.0114 11.0588 34.9246 9.72409 35.566H31.0852C31.5458 35.566 31.9194 35.1924 31.9194 34.7313C31.9194 34.2701 31.5457 33.8965 31.0852 33.8965H27.1904C26.9585 33.8965 26.7702 33.7089 26.7702 33.4768C26.7702 33.3892 26.8032 33.3142 26.8475 33.2471H33.171C33.6322 33.2471 34.0064 32.8741 34.0064 32.4123C34.0063 31.9512 33.6321 31.5776 33.1709 31.5776Z" fill="#0082FD"/>
</svg>