<svg width="16" height="16" viewBox="0 0 16 16" fill="none" xmlns="http://www.w3.org/2000/svg">
<path opacity="0.4" d="M14 12.6666V11.5694C14 11.0242 13.668 10.5339 13.1618 10.3314L11.8057 9.78896C11.1619 9.53142 10.4281 9.8104 10.118 10.4306L9.99998 10.6667C9.99998 10.6667 8.33332 10.3333 6.99999 8.99999C5.66666 7.66666 5.33333 5.99999 5.33333 5.99999L5.56934 5.88199C6.18958 5.57187 6.46856 4.83809 6.21102 4.19423L5.66858 2.83814C5.4661 2.33193 4.97582 2 4.43062 2L3.33333 2C2.59695 2 2 2.59695 2 3.33333C2 9.22436 6.77562 14 12.6666 14C13.403 14 14 13.403 14 12.6666Z" fill="currentColor"/>
<path fill-rule="evenodd" clip-rule="evenodd" d="M8.16663 4.66666C8.16663 4.39052 8.39048 4.16666 8.66663 4.16666C9.08248 4.16666 9.49426 4.24857 9.87845 4.40771C10.2627 4.56685 10.6117 4.8001 10.9058 5.09416C11.1998 5.38821 11.4331 5.7373 11.5922 6.12149C11.7514 6.50569 11.8333 6.91747 11.8333 7.33332C11.8333 7.60946 11.6094 7.83332 11.3333 7.83332C11.0571 7.83332 10.8333 7.60946 10.8333 7.33332C10.8333 7.04879 10.7772 6.76705 10.6684 6.50418C10.5595 6.24131 10.3999 6.00245 10.1987 5.80126C9.99749 5.60007 9.75864 5.44047 9.49577 5.33159C9.2329 5.2227 8.95116 5.16666 8.66663 5.16666C8.39048 5.16666 8.16663 4.9428 8.16663 4.66666Z" fill="currentColor"/>
<path fill-rule="evenodd" clip-rule="evenodd" d="M8.16663 2C8.16663 1.72386 8.39048 1.5 8.66663 1.5C9.43267 1.5 10.1912 1.65088 10.8989 1.94404C11.6067 2.23719 12.2497 2.66687 12.7914 3.20854C13.3331 3.75021 13.7628 4.39328 14.0559 5.10101C14.3491 5.80874 14.4999 6.56728 14.4999 7.33332C14.4999 7.60946 14.2761 7.83332 13.9999 7.83332C13.7238 7.83332 13.4999 7.60946 13.4999 7.33332C13.4999 6.6986 13.3749 6.07009 13.132 5.48369C12.8891 4.89728 12.5331 4.36446 12.0843 3.91565C11.6355 3.46683 11.1027 3.11081 10.5163 2.86791C9.92985 2.62502 9.30135 2.5 8.66663 2.5C8.39048 2.5 8.16663 2.27614 8.16663 2Z" fill="currentColor"/>
</svg>
