<svg width="94" height="24" viewBox="0 0 94 24" fill="none" xmlns="http://www.w3.org/2000/svg">
<path d="M-0.000651121 12C-0.000651121 13.4728 1.19326 14.6667 2.66602 14.6667C4.13877 14.6667 5.33268 13.4728 5.33268 12C5.33268 10.5272 4.13877 9.33333 2.66602 9.33333C1.19326 9.33333 -0.000651121 10.5272 -0.000651121 12ZM2.66602 12.5H4.28268V11.5H2.66602V12.5ZM7.51602 12.5H10.7493V11.5H7.51602V12.5ZM13.9827 12.5H17.216V11.5H13.9827V12.5ZM20.4494 12.5H23.6827V11.5H20.4494V12.5ZM26.916 12.5H30.1494V11.5H26.916V12.5ZM33.3827 12.5H34.9994V11.5H33.3827V12.5Z" fill="#E0E0E0"/>
<path fill-rule="evenodd" clip-rule="evenodd" d="M41 3.0625H44.5C46.7091 3.0625 48.5 4.85336 48.5 7.0625V19.0625H45.5C45.5 17.1295 43.933 15.5625 42 15.5625C40.3438 15.5625 38.9571 16.7121 38.5932 18.2577C37.6255 17.5276 37 16.3681 37 15.0625V7.0625C37 4.85336 38.7909 3.0625 41 3.0625ZM44 19.0625C44 20.1671 43.1046 21.0625 42 21.0625C40.8954 21.0625 40 20.1671 40 19.0625C40 19.0205 40.0013 18.9788 40.0038 18.9375C40.0684 17.8911 40.9374 17.0625 42 17.0625C43.1046 17.0625 44 17.9579 44 19.0625ZM55 19.0625C55 20.1671 54.1046 21.0625 53 21.0625C51.8954 21.0625 51 20.1671 51 19.0625C51 17.9579 51.8954 17.0625 53 17.0625C54.1046 17.0625 55 17.9579 55 19.0625ZM53 15.5625C54.7222 15.5625 56.1538 16.8063 56.4456 18.4446C56.7891 18.0855 57 17.5986 57 17.0625V11.679C57 11.1261 56.7712 10.598 56.3679 10.2199L53.577 7.60343C53.2063 7.2559 52.7172 7.0625 52.2091 7.0625H50V17.2587C50.6124 16.2423 51.7268 15.5625 53 15.5625Z" fill="#F38630"/>
<path d="M88.6667 12C88.6667 13.4728 89.8606 14.6667 91.3333 14.6667C92.8061 14.6667 94 13.4728 94 12C94 10.5272 92.8061 9.33333 91.3333 9.33333C89.8606 9.33333 88.6667 10.5272 88.6667 12ZM59 12.5H60.6167V11.5H59V12.5ZM63.85 12.5H67.0833V11.5H63.85V12.5ZM70.3167 12.5H73.55V11.5H70.3167V12.5ZM76.7833 12.5H80.0167V11.5H76.7833V12.5ZM83.25 12.5H86.4833V11.5H83.25V12.5ZM89.7167 12.5H91.3333V11.5H89.7167V12.5Z" fill="#E0E0E0"/>
</svg>
