<svg width="25" height="27" viewBox="0 0 25 27" fill="none" xmlns="http://www.w3.org/2000/svg">
<path fill-rule="evenodd" clip-rule="evenodd" d="M7 0.5625C7.51777 0.5625 7.9375 0.982233 7.9375 1.5V5.25C7.9375 5.76777 7.51777 6.1875 7 6.1875C6.48223 6.1875 6.0625 5.76777 6.0625 5.25V1.5C6.0625 0.982233 6.48223 0.5625 7 0.5625Z" fill="white"/>
<path fill-rule="evenodd" clip-rule="evenodd" d="M17 0.5625C17.5178 0.5625 17.9375 0.982233 17.9375 1.5V5.25C17.9375 5.76777 17.5178 6.1875 17 6.1875C16.4822 6.1875 16.0625 5.76777 16.0625 5.25V1.5C16.0625 0.982233 16.4822 0.5625 17 0.5625Z" fill="white"/>
<path opacity="0.4" d="M0.75 8.375C0.75 5.61358 2.98858 3.375 5.75 3.375H18.25C21.0114 3.375 23.25 5.61358 23.25 8.375V21.5C23.25 24.2614 21.0114 26.5 18.25 26.5H5.75C2.98858 26.5 0.75 24.2614 0.75 21.5V8.375Z" fill="white"/>
<path d="M20.9284 14.6128C21.7455 13.7957 23.0702 13.7957 23.8872 14.6128C24.7043 15.4299 24.7043 16.7546 23.8872 17.5716L17.6187 23.8401C17.4679 23.991 17.2811 24.1008 17.076 24.1593L14.3304 24.942C13.8592 25.0763 13.4237 24.6408 13.558 24.1696L14.3407 21.4241C14.3992 21.2189 14.5091 21.0321 14.6599 20.8813L20.9284 14.6128Z" fill="white"/>
<path fill-rule="evenodd" clip-rule="evenodd" d="M16.3674 9.54447C16.757 9.88542 16.7965 10.4777 16.4556 10.8674L12.8682 14.9672C12.0973 15.8482 10.7695 15.9662 9.85541 15.2349L7.66438 13.4821C7.26007 13.1586 7.19452 12.5687 7.51797 12.1644C7.84142 11.7601 8.43138 11.6945 8.83569 12.0179L11.0267 13.7708C11.1573 13.8752 11.347 13.8584 11.4571 13.7325L15.0445 9.63266C15.3854 9.24301 15.9777 9.20352 16.3674 9.54447Z" fill="white"/>
</svg>
