<svg width="16" height="16" viewBox="0 0 16 16" fill="none" xmlns="http://www.w3.org/2000/svg">
<path d="M12.0951 8.99353C12.5309 8.55777 13.2374 8.55777 13.6732 8.99353C14.1089 9.4293 14.1089 10.1358 13.6732 10.5716L10.33 13.9148C10.2495 13.9952 10.1499 14.0538 10.0405 14.085L8 14.6667L8.58171 12.6262C8.6129 12.5168 8.67149 12.4172 8.75192 12.3367L12.0951 8.99353Z" fill="white"/>
<path d="M14 6.66671V5.00004C14 3.52728 12.8061 2.33337 11.3333 2.33337H4.66667C3.19391 2.33337 2 3.52728 2 5.00004V12C2 13.4728 3.19391 14.6667 4.66667 14.6667H6M5.33333 1.33337V3.33337M10.6667 1.33337V3.33337M8 5.33337V9.33337M10 7.33337H6M8 14.6667L10.0405 14.085C10.1499 14.0538 10.2495 13.9952 10.33 13.9148L13.6732 10.5716C14.1089 10.1358 14.1089 9.4293 13.6732 8.99353C13.2374 8.55777 12.5309 8.55777 12.0951 8.99353L8.75192 12.3367C8.67149 12.4172 8.6129 12.5168 8.58171 12.6262L8 14.6667Z" stroke="white" stroke-width="1.5" stroke-linecap="round"/>
</svg>
