<svg width="44" height="44" viewBox="0 0 44 44" fill="none" xmlns="http://www.w3.org/2000/svg">
<path opacity="0.21" fill-rule="evenodd" clip-rule="evenodd" d="M0 22V32C0 38.6274 5.37258 44 12 44H22H32C38.6274 44 44 38.6274 44 32V22V12C44 5.37258 38.6274 0 32 0H22H12C5.37258 0 0 5.37258 0 12V22Z" fill="#4AD991"/>
<path d="M14.0149 29.9862H31.126C31.756 29.9862 32.2667 30.497 32.2667 31.127C32.2667 31.757 31.756 32.2677 31.126 32.2677H12.8741C12.2441 32.2677 11.7334 31.757 11.7334 31.127V12.8751C11.7334 12.2451 12.2441 11.7344 12.8741 11.7344C13.5042 11.7344 14.0149 12.2451 14.0149 12.8751V29.9862Z" fill="#4AD991"/>
<path opacity="0.5" d="M18.2692 25.0624C17.8383 25.522 17.1164 25.5453 16.6568 25.1144C16.1972 24.6835 16.1739 23.9616 16.6048 23.502L20.8826 18.939C21.2993 18.4945 21.9918 18.4559 22.4553 18.8515L25.8316 21.7326L30.2305 16.1605C30.6209 15.666 31.3383 15.5816 31.8328 15.972C32.3272 16.3624 32.4116 17.0797 32.0212 17.5742L26.8879 24.0764C26.487 24.5843 25.7443 24.6573 25.2521 24.2373L21.8024 21.2936L18.2692 25.0624Z" fill="#4AD991"/>
</svg>
