<svg width="16" height="16" viewBox="0 0 16 16" fill="none" xmlns="http://www.w3.org/2000/svg">
<path d="M1.49976 3.83337V10.5004H7.83374V5.16638H12.6667C13.8639 5.16638 14.8337 6.13618 14.8337 7.33337V12.8334H14.4998V10.8334H1.49976V12.8334H1.16675V3.83337H1.49976ZM8.16675 10.5004H14.4998V7.33337C14.4998 6.3239 13.6762 5.50037 12.6667 5.50037H8.16675V10.5004ZM4.66675 5.83337C5.49727 5.83337 6.16675 6.50285 6.16675 7.33337C6.16675 8.1639 5.49727 8.83337 4.66675 8.83337C3.83622 8.83337 3.16675 8.1639 3.16675 7.33337C3.16675 6.50285 3.83622 5.83337 4.66675 5.83337ZM4.66675 6.16638C4.02394 6.16638 3.49976 6.69057 3.49976 7.33337C3.49976 7.97618 4.02394 8.50037 4.66675 8.50037C5.30956 8.50037 5.83374 7.97618 5.83374 7.33337C5.83374 6.69057 5.30956 6.16638 4.66675 6.16638Z" stroke="#080B1D"/>
</svg>
