<svg width="44" height="44" viewBox="0 0 44 44" fill="none" xmlns="http://www.w3.org/2000/svg">
<path opacity="0.21" fill-rule="evenodd" clip-rule="evenodd" d="M0 22V32C0 38.6274 5.37258 44 12 44H22H32C38.6274 44 44 38.6274 44 32V22V12C44 5.37258 38.6274 0 32 0H22H12C5.37258 0 0 5.37258 0 12V22Z" fill="#FEC53D"/>
<path fill-rule="evenodd" clip-rule="evenodd" d="M11 17.8327L20.4604 23.2946C20.5622 23.3535 20.669 23.3959 20.7778 23.4229V34.0161L11.6747 28.6289C11.2565 28.3814 11 27.9315 11 27.4456V17.8327ZM32.9999 17.6875V27.4456C32.9999 27.9315 32.7434 28.3814 32.3252 28.6289L23.2221 34.0161V23.3301C23.2443 23.319 23.2663 23.3072 23.2881 23.2946L32.9999 17.6875Z" fill="#FEC53D"/>
<path opacity="0.499209" fill-rule="evenodd" clip-rule="evenodd" d="M11.2971 15.1829C11.4127 15.0369 11.5585 14.9136 11.7286 14.823L21.3536 9.69656C21.7576 9.48135 22.2423 9.48135 22.6463 9.69656L32.2713 14.823C32.4024 14.8929 32.5191 14.9821 32.6187 15.0862L22.0659 21.1789C21.9965 21.219 21.9325 21.2648 21.8742 21.3154C21.8159 21.2648 21.7519 21.219 21.6825 21.1789L11.2971 15.1829Z" fill="#FEC53D"/>
</svg>
