<svg width="17" height="16" viewBox="0 0 17 16" fill="none" xmlns="http://www.w3.org/2000/svg">
<path d="M12.5993 9.33398C12.4225 9.33398 12.2529 9.40422 12.1279 9.52925C12.0029 9.65427 11.9326 9.82384 11.9326 10.0007C11.9326 10.1775 12.0029 10.347 12.1279 10.4721C12.2529 10.5971 12.4225 10.6673 12.5993 10.6673C12.7761 10.6673 12.9457 10.5971 13.0707 10.4721C13.1957 10.347 13.266 10.1775 13.266 10.0007C13.266 9.82384 13.1957 9.65427 13.0707 9.52925C12.9457 9.40422 12.7761 9.33398 12.5993 9.33398ZM8.59928 9.33398C8.42247 9.33398 8.2529 9.40422 8.12788 9.52925C8.00285 9.65427 7.93262 9.82384 7.93262 10.0007C7.93262 10.1775 8.00285 10.347 8.12788 10.4721C8.2529 10.5971 8.42247 10.6673 8.59928 10.6673C8.77609 10.6673 8.94566 10.5971 9.07069 10.4721C9.19571 10.347 9.26595 10.1775 9.26595 10.0007C9.26595 9.82384 9.19571 9.65427 9.07069 9.52925C8.94566 9.40422 8.77609 9.33398 8.59928 9.33398ZM4.59928 9.33398C4.42247 9.33398 4.2529 9.40422 4.12788 9.52925C4.00286 9.65427 3.93262 9.82384 3.93262 10.0007C3.93262 10.1775 4.00286 10.347 4.12788 10.4721C4.2529 10.5971 4.42247 10.6673 4.59928 10.6673C4.77609 10.6673 4.94566 10.5971 5.07069 10.4721C5.19571 10.347 5.26595 10.1775 5.26595 10.0007C5.26595 9.82384 5.19571 9.65427 5.07069 9.52925C4.94566 9.40422 4.77609 9.33398 4.59928 9.33398ZM12.5993 5.33398C12.4225 5.33398 12.2529 5.40422 12.1279 5.52925C12.0029 5.65427 11.9326 5.82384 11.9326 6.00065C11.9326 6.17746 12.0029 6.34703 12.1279 6.47206C12.2529 6.59708 12.4225 6.66732 12.5993 6.66732C12.7761 6.66732 12.9457 6.59708 13.0707 6.47206C13.1957 6.34703 13.266 6.17746 13.266 6.00065C13.266 5.82384 13.1957 5.65427 13.0707 5.52925C12.9457 5.40422 12.7761 5.33398 12.5993 5.33398ZM8.59928 5.33398C8.42247 5.33398 8.2529 5.40422 8.12788 5.52925C8.00285 5.65427 7.93262 5.82384 7.93262 6.00065C7.93262 6.17746 8.00285 6.34703 8.12788 6.47206C8.2529 6.59708 8.42247 6.66732 8.59928 6.66732C8.77609 6.66732 8.94566 6.59708 9.07069 6.47206C9.19571 6.34703 9.26595 6.17746 9.26595 6.00065C9.26595 5.82384 9.19571 5.65427 9.07069 5.52925C8.94566 5.40422 8.77609 5.33398 8.59928 5.33398ZM4.59928 5.33398C4.42247 5.33398 4.2529 5.40422 4.12788 5.52925C4.00286 5.65427 3.93262 5.82384 3.93262 6.00065C3.93262 6.17746 4.00286 6.34703 4.12788 6.47206C4.2529 6.59708 4.42247 6.66732 4.59928 6.66732C4.77609 6.66732 4.94566 6.59708 5.07069 6.47206C5.19571 6.34703 5.26595 6.17746 5.26595 6.00065C5.26595 5.82384 5.19571 5.65427 5.07069 5.52925C4.94566 5.40422 4.77609 5.33398 4.59928 5.33398Z" fill="currentColor" stroke="currentColor" stroke-linecap="round" stroke-linejoin="round"/>
</svg>
