<svg width="16" height="17" viewBox="0 0 16 17" fill="none" xmlns="http://www.w3.org/2000/svg">
<g clip-path="url(#clip0_3117_97605)">
<path fill-rule="evenodd" clip-rule="evenodd" d="M5 12.5C6.103 12.5 7 13.397 7 14.5C7 15.603 6.103 16.5 5 16.5C3.897 16.5 3 15.603 3 14.5C3 13.397 3.897 12.5 5 12.5ZM11 12.5C12.103 12.5 13 13.397 13 14.5C13 15.603 12.103 16.5 11 16.5C9.897 16.5 9 15.603 9 14.5C9 13.397 9.897 12.5 11 12.5ZM5 6.5C6.103 6.5 7 7.397 7 8.5C7 9.603 6.103 10.5 5 10.5C3.897 10.5 3 9.603 3 8.5C3 7.397 3.897 6.5 5 6.5ZM11 6.5C12.103 6.5 13 7.397 13 8.5C13 9.603 12.103 10.5 11 10.5C9.897 10.5 9 9.603 9 8.5C9 7.397 9.897 6.5 11 6.5ZM5 0.5C6.103 0.5 7 1.397 7 2.5C7 3.603 6.103 4.5 5 4.5C3.897 4.5 3 3.603 3 2.5C3 1.397 3.897 0.5 5 0.5ZM11 0.5C12.103 0.5 13 1.397 13 2.5C13 3.603 12.103 4.5 11 4.5C9.897 4.5 9 3.603 9 2.5C9 1.397 9.897 0.5 11 0.5Z" fill="currentColor"/>
</g>
<defs>
<clipPath id="clip0_3117_97605">
<rect width="16" height="16" fill="currentColor" transform="translate(0 0.5)"/>
</clipPath>
</defs>
</svg>
