<svg width="16" height="16" viewBox="0 0 16 16" fill="none" xmlns="http://www.w3.org/2000/svg">
<g clip-path="url(#clip0_651_1388)">
<path d="M14.6666 8.00004V12C14.6666 13.4728 13.4727 14.6667 11.9999 14.6667H3.99992C2.52716 14.6667 1.33325 13.4728 1.33325 12V4.00004C1.33325 2.52728 2.52716 1.33337 3.99992 1.33337H7.99992M10.4575 2.68187C10.4575 2.68187 10.4575 3.6354 11.411 4.58894C12.3646 5.54247 13.3181 5.54247 13.3181 5.54247M6.10303 10.6598L8.10545 10.3737C8.39429 10.3324 8.66196 10.1986 8.86827 9.99228L14.2716 4.58893C14.7982 4.06231 14.7982 3.20849 14.2716 2.68187L13.3181 1.72834C12.7915 1.20172 11.9376 1.20172 11.411 1.72834L6.00768 7.13168C5.80136 7.338 5.66753 7.60567 5.62627 7.89451L5.34021 9.89693C5.27664 10.3419 5.65805 10.7233 6.10303 10.6598Z" stroke="#080B1D" stroke-linecap="round"/>
</g>
<defs>
<clipPath id="clip0_651_1388">
<rect width="16" height="16" fill="white"/>
</clipPath>
</defs>
</svg>
