<svg width="16" height="16" viewBox="0 0 16 16" fill="none" xmlns="http://www.w3.org/2000/svg">
<path d="M7.994 2.00001C6.80757 2.00119 5.64812 2.3541 4.66222 3.0141C3.67631 3.67411 2.90821 4.6116 2.45501 5.70806C2.0018 6.80452 1.88384 8.01073 2.11602 9.17422C2.34821 10.3377 2.92013 11.4062 3.75948 12.2448C4.59884 13.0833 5.66794 13.6541 6.83167 13.8852C7.99539 14.1162 9.20148 13.997 10.2975 13.5427C11.3935 13.0884 12.3302 12.3194 12.9892 11.3328C13.6483 10.3462 14 9.18644 14 8.00001C14.0004 7.21146 13.8453 6.43058 13.5435 5.70206C13.2417 4.97354 12.7993 4.31168 12.2414 3.75438C11.6835 3.19707 11.0212 2.75525 10.2924 2.45421C9.56358 2.15318 8.78255 1.99883 7.994 2.00001ZM8 12.6667C7.07702 12.6667 6.17477 12.393 5.40734 11.8802C4.63991 11.3674 4.04177 10.6386 3.68856 9.78586C3.33536 8.93314 3.24294 7.99483 3.423 7.08959C3.60307 6.18434 4.04753 5.35282 4.70017 4.70018C5.35282 4.04753 6.18434 3.60307 7.08958 3.42301C7.99483 3.24294 8.93314 3.33536 9.78586 3.68857C10.6386 4.04178 11.3674 4.63992 11.8802 5.40735C12.393 6.17478 12.6667 7.07703 12.6667 8.00001C12.6668 8.61289 12.5462 9.2198 12.3118 9.78606C12.0773 10.3523 11.7336 10.8668 11.3002 11.3002C10.8668 11.7336 10.3523 12.0773 9.78606 12.3118C9.2198 12.5463 8.61289 12.6668 8 12.6667ZM10.07 9.20001H11.072C10.831 9.81867 10.4087 10.3501 9.86059 10.7248C9.31246 11.0995 8.66397 11.3 8 11.3C7.33604 11.3 6.68754 11.0995 6.13941 10.7248C5.59128 10.3501 5.16905 9.81867 4.928 9.20001H5.93C6.13879 9.56461 6.44018 9.86759 6.80367 10.0783C7.16716 10.289 7.57985 10.4 8 10.4C8.42015 10.4 8.83285 10.289 9.19634 10.0783C9.55983 9.86759 9.86121 9.56461 10.07 9.20001ZM5 6.50001C5 6.322 5.05279 6.148 5.15168 5.99999C5.25057 5.85199 5.39113 5.73663 5.55559 5.66852C5.72004 5.6004 5.901 5.58257 6.07558 5.6173C6.25017 5.65203 6.41053 5.73774 6.5364 5.86361C6.66227 5.98948 6.74798 6.14984 6.78271 6.32443C6.81744 6.49901 6.79961 6.67997 6.73149 6.84442C6.66338 7.00888 6.54802 7.14944 6.40002 7.24833C6.25201 7.34722 6.07801 7.40001 5.9 7.40001C5.66131 7.40001 5.43239 7.30519 5.26361 7.1364C5.09482 6.96762 5 6.7387 5 6.50001ZM9.2 6.50001C9.2 6.322 9.25279 6.148 9.35168 5.99999C9.45057 5.85199 9.59113 5.73663 9.75559 5.66852C9.92004 5.6004 10.101 5.58257 10.2756 5.6173C10.4502 5.65203 10.6105 5.73774 10.7364 5.86361C10.8623 5.98948 10.948 6.14984 10.9827 6.32443C11.0174 6.49901 10.9996 6.67997 10.9315 6.84442C10.8634 7.00888 10.748 7.14944 10.6 7.24833C10.452 7.34722 10.278 7.40001 10.1 7.40001C9.86131 7.40001 9.63239 7.30519 9.46361 7.1364C9.29482 6.96762 9.2 6.7387 9.2 6.50001Z" fill="#05194A"/>
</svg>
