<svg width="15" height="14" viewBox="0 0 15 14" fill="none" xmlns="http://www.w3.org/2000/svg">
<path d="M3.51562 3.17969C4.57031 2.38281 5.88281 1.75 7.5 1.75C9.375 1.75 10.8984 2.61719 12 3.64844C13.1016 4.65625 13.8281 5.875 14.1797 6.71875C14.25 6.90625 14.25 7.11719 14.1797 7.30469C13.875 8.05469 13.2422 9.13281 12.3047 10.0703L14.7656 12.0156C15.0234 12.2031 15.0703 12.5547 14.8594 12.7891C14.6719 13.0469 14.3203 13.0938 14.0859 12.8828L0.210938 2.00781C-0.046875 1.82031 -0.09375 1.46875 0.117188 1.23438C0.304688 0.976562 0.65625 0.929688 0.890625 1.14062L3.51562 3.17969ZM5.22656 4.51562L7.33594 6.17969C7.42969 5.96875 7.5 5.75781 7.5 5.5C7.5 5.24219 7.40625 4.98438 7.28906 4.77344C7.35938 4.77344 7.42969 4.75 7.5 4.75C8.74219 4.75 9.75 5.75781 9.75 7C9.75 7.32812 9.67969 7.63281 9.53906 7.91406L10.4531 8.61719C10.7109 8.14844 10.875 7.58594 10.875 7C10.875 5.14844 9.35156 3.625 7.5 3.625C6.60938 3.625 5.8125 3.97656 5.22656 4.51562ZM7.5 12.25C5.60156 12.25 4.07812 11.4062 2.97656 10.375C1.875 9.34375 1.14844 8.125 0.796875 7.30469C0.726562 7.11719 0.726562 6.90625 0.796875 6.71875C1.03125 6.17969 1.40625 5.5 1.94531 4.79688L4.14844 6.53125C4.125 6.69531 4.125 6.85938 4.125 7C4.125 8.875 5.625 10.375 7.5 10.375C7.92188 10.375 8.34375 10.3047 8.74219 10.1406L10.4531 11.5C9.58594 11.9688 8.60156 12.25 7.5 12.25Z" fill="currentColor"/>
</svg>
