<svg width="14" height="14" viewBox="0 0 14 14" fill="none" xmlns="http://www.w3.org/2000/svg">
<g clip-path="url(#clip0_2078_78161)">
<path d="M1.75 10.4998L1 10.4998L1.75 10.4998ZM1.75 3.49984L2.5 3.49984L1.75 3.49984ZM4.08333 1.1665L4.08333 0.416504L4.08333 1.1665ZM9.91667 1.1665L9.91667 0.416504L9.91667 1.1665ZM12.25 3.49984L11.5 3.49984V3.49984H12.25ZM12.25 7.20001L13 7.20001V7.20001H12.25ZM6.61683 12.8332L6.61683 12.0832H6.61683L6.61683 12.8332ZM4.08333 12.8332L4.08333 13.5832H4.08333V12.8332ZM11.5666 8.84992L11.0363 8.31959L11.0363 8.31959L11.5666 8.84992ZM8.26675 12.1498L8.79708 12.6801L8.79708 12.6801L8.26675 12.1498ZM7.58333 10.4998L6.83333 10.4998V10.4998H7.58333ZM9.91667 8.1665L9.91667 7.4165L9.91667 7.4165L9.91667 8.1665ZM5.25 4.49984C4.83579 4.49984 4.5 4.83562 4.5 5.24984C4.5 5.66405 4.83579 5.99984 5.25 5.99984V4.49984ZM8.75 5.99984C9.16421 5.99984 9.5 5.66405 9.5 5.24984C9.5 4.83562 9.16421 4.49984 8.75 4.49984L8.75 5.99984ZM1.75 10.4998L2.5 10.4998L2.5 3.49984L1.75 3.49984L1 3.49984L1 10.4998L1.75 10.4998ZM4.08333 1.1665L4.08333 1.9165L9.91667 1.9165L9.91667 1.1665L9.91667 0.416504L4.08333 0.416504L4.08333 1.1665ZM12.25 3.49984H11.5V7.20001H12.25H13V3.49984H12.25ZM6.61683 12.8332L6.61683 12.0832H4.08333V12.8332V13.5832H6.61683V12.8332ZM11.5666 8.84992L11.0363 8.31959L7.73642 11.6194L8.26675 12.1498L8.79708 12.6801L12.0969 9.38025L11.5666 8.84992ZM6.61683 12.8332L6.61683 13.5832C7.43459 13.5832 8.21884 13.2583 8.79708 12.6801L8.26675 12.1498L7.73642 11.6194C7.43949 11.9164 7.03676 12.0832 6.61683 12.0832L6.61683 12.8332ZM12.25 7.20001L11.5 7.20001C11.5 7.61993 11.3332 8.02266 11.0363 8.31959L11.5666 8.84992L12.0969 9.38025C12.6751 8.80202 13 8.01776 13 7.20001L12.25 7.20001ZM1.75 3.49984L2.5 3.49984C2.5 2.62539 3.20888 1.9165 4.08333 1.9165L4.08333 1.1665L4.08333 0.416504C2.38046 0.416504 1 1.79696 1 3.49984L1.75 3.49984ZM1.75 10.4998L1 10.4998C1 12.2027 2.38046 13.5832 4.08333 13.5832L4.08333 12.8332L4.08333 12.0832C3.20888 12.0832 2.5 11.3743 2.5 10.4998L1.75 10.4998ZM9.91667 1.1665L9.91667 1.9165C10.7911 1.9165 11.5 2.62539 11.5 3.49984L12.25 3.49984L13 3.49984C13 1.79696 11.6195 0.416504 9.91667 0.416504L9.91667 1.1665ZM7.58333 12.8332H8.33333L8.33333 10.4998H7.58333H6.83333L6.83333 12.8332H7.58333ZM9.91667 8.1665L9.91667 8.9165L12.25 8.9165L12.25 8.1665L12.25 7.4165L9.91667 7.4165L9.91667 8.1665ZM7.58333 10.4998L8.33333 10.4998C8.33333 9.62539 9.04222 8.9165 9.91667 8.9165L9.91667 8.1665L9.91667 7.4165C8.21379 7.4165 6.83333 8.79696 6.83333 10.4998L7.58333 10.4998ZM5.25 5.24984V5.99984L8.75 5.99984V5.24984L8.75 4.49984H5.25V5.24984Z" fill="currentColor"/>
</g>
<defs>
<clipPath id="clip0_2078_78161">
<rect width="14" height="14" fill="currentColor"/>
</clipPath>
</defs>
</svg>
