<svg width="16" height="16" viewBox="0 0 16 16" fill="none" xmlns="http://www.w3.org/2000/svg">
<path d="M10 10L14 14M14 10L10 14M6.66667 14V9.77513C6.66667 9.61213 6.66667 9.5306 6.64825 9.45387C6.63191 9.3858 6.60498 9.3208 6.56843 9.26113C6.5272 9.19387 6.46955 9.1362 6.35425 9.02093L2.31242 4.97909C2.19712 4.86379 2.13947 4.80613 2.09824 4.73885C2.06169 4.67921 2.03475 4.61418 2.01842 4.54615C2 4.46943 2 4.3879 2 4.22484V3.06667C2 2.6933 2 2.50661 2.07266 2.36401C2.13658 2.23857 2.23857 2.13658 2.36401 2.07266C2.50661 2 2.6933 2 3.06667 2H12.9333C13.3067 2 13.4934 2 13.636 2.07266C13.7615 2.13658 13.8634 2.23857 13.9273 2.36401C14 2.50661 14 2.6933 14 3.06667V4.22484C14 4.3879 14 4.46943 13.9816 4.54615C13.9653 4.61418 13.9383 4.67921 13.9017 4.73885C13.8605 4.80613 13.8029 4.86379 13.6876 4.97909L11.3333 7.33333" stroke="currentColor" stroke-width="1.33333" stroke-linecap="round" stroke-linejoin="round"/>
</svg>
