<svg width="14" height="14" viewBox="0 0 14 14" fill="none" xmlns="http://www.w3.org/2000/svg">
<path d="M1.75 4.08398H4.66667M11.0833 4.08398H12.25M11.0833 4.08398C11.0833 5.05048 10.2998 5.83398 9.33333 5.83398H8.16667C7.20017 5.83398 6.41667 5.05048 6.41667 4.08398C6.41667 3.11749 7.20017 2.33398 8.16667 2.33398L9.33333 2.33398C10.2998 2.33398 11.0833 3.11749 11.0833 4.08398ZM9.33333 9.91732H12.25M1.75 9.91732H2.91667M2.91667 9.91732C2.91667 10.8838 3.70017 11.6673 4.66667 11.6673H5.83333C6.79983 11.6673 7.58333 10.8838 7.58333 9.91732C7.58333 8.95082 6.79983 8.16732 5.83333 8.16732H4.66667C3.70017 8.16732 2.91667 8.95082 2.91667 9.91732Z" stroke="currentColor" stroke-width="1.5" stroke-linecap="round"/>
</svg>
