<svg width="16" height="16" viewBox="0 0 16 16" fill="none" xmlns="http://www.w3.org/2000/svg">
<g clip-path="url(#clip0_3261_46786)">
<path d="M11.7437 2.11406L12.274 1.58373L12.274 1.58373L11.7437 2.11406ZM13.8853 4.25566L13.355 4.78599L13.355 4.78599L13.8853 4.25566ZM3.91634 14.6663V15.4163H5.41634V14.6663H3.91634ZM10.583 14.6663V15.4163H12.083V14.6663H10.583ZM9.99967 5.41634C10.4139 5.41634 10.7497 5.08055 10.7497 4.66634C10.7497 4.25213 10.4139 3.91634 9.99967 3.91634L9.99967 5.41634ZM5.99967 3.91634C5.58546 3.91634 5.24967 4.25213 5.24967 4.66634C5.24967 5.08055 5.58546 5.41634 5.99967 5.41634L5.99967 3.91634ZM14.6663 6.14128H13.9163V11.9997H14.6663H15.4163V6.14128H14.6663ZM11.9997 14.6663V13.9163H3.99967V14.6663V15.4163H11.9997V14.6663ZM1.33301 11.9997H2.08301V3.99967H1.33301H0.583008V11.9997H1.33301ZM3.99967 1.33301V2.08301H9.85807V1.33301V0.583008H3.99967V1.33301ZM11.7437 2.11406L11.2134 2.64439L13.355 4.78599L13.8853 4.25566L14.4156 3.72533L12.274 1.58373L11.7437 2.11406ZM9.85807 1.33301V2.08301C10.3664 2.08301 10.8539 2.28494 11.2134 2.64439L11.7437 2.11406L12.274 1.58373C11.6333 0.942977 10.7642 0.583008 9.85807 0.583008V1.33301ZM3.99967 14.6663V13.9163C2.94113 13.9163 2.08301 13.0582 2.08301 11.9997H1.33301H0.583008C0.583008 13.8866 2.1127 15.4163 3.99967 15.4163V14.6663ZM14.6663 11.9997H13.9163C13.9163 13.0582 13.0582 13.9163 11.9997 13.9163V14.6663V15.4163C13.8866 15.4163 15.4163 13.8867 15.4163 11.9997H14.6663ZM14.6663 6.14128H15.4163C15.4163 5.23512 15.0564 4.36608 14.4156 3.72533L13.8853 4.25566L13.355 4.78599C13.7144 5.14544 13.9163 5.63295 13.9163 6.14128H14.6663ZM1.33301 3.99967H2.08301C2.08301 2.94113 2.94113 2.08301 3.99967 2.08301V1.33301V0.583008C2.1127 0.583008 0.583008 2.1127 0.583008 3.99967H1.33301ZM4.66634 14.6663H5.41634V10.6663H4.66634H3.91634V14.6663H4.66634ZM5.99967 9.33301V10.083H9.99967V9.33301V8.58301H5.99967V9.33301ZM11.333 10.6663H10.583V14.6663H11.333H12.083V10.6663H11.333ZM9.99967 9.33301V10.083C10.3218 10.083 10.583 10.3442 10.583 10.6663H11.333H12.083C12.083 9.51575 11.1503 8.58301 9.99967 8.58301V9.33301ZM4.66634 10.6663H5.41634C5.41634 10.3442 5.67751 10.083 5.99967 10.083V9.33301V8.58301C4.84908 8.58301 3.91634 9.51575 3.91634 10.6663H4.66634ZM9.99967 4.66634L9.99967 3.91634L5.99967 3.91634L5.99967 4.66634L5.99967 5.41634L9.99967 5.41634L9.99967 4.66634Z" fill="currentColor"/>
</g>
<defs>
<clipPath id="clip0_3261_46786">
<rect width="16" height="16" fill="currentColor"/>
</clipPath>
</defs>
</svg>
