<svg width="80" height="81" viewBox="0 0 80 81" fill="none" xmlns="http://www.w3.org/2000/svg">
<path d="M30.0004 50.5003L35.2864 45.2144C37.8899 42.6109 42.111 42.6109 44.7145 45.2144L50.0004 50.5003M40.0004 43.8337V60.5003M66.6671 23.8337V27.167H13.3338V17.167C13.3338 11.6441 17.8109 7.16699 23.3338 7.16699H31.8977C34.1245 7.16699 36.2876 7.91026 38.0442 9.27899L41.1789 11.7217C42.9354 13.0904 45.0986 13.8337 47.3254 13.8337H56.6671C62.1899 13.8337 66.6671 18.3108 66.6671 23.8337ZM11.5803 27.167H68.4205C72.6648 27.167 75.8285 31.0804 74.9392 35.2305L68.9256 63.294C67.6082 69.4417 62.1754 73.8337 55.8882 73.8337H24.1126C17.8255 73.8337 12.3926 69.4417 11.0753 63.294L5.06166 35.2305C4.17236 31.0804 7.33605 27.167 11.5803 27.167Z" stroke="currentColor" stroke-width="4" stroke-linecap="round" stroke-linejoin="round"/>
</svg>
