<svg width="16" height="16" viewBox="0 0 16 16" fill="none" xmlns="http://www.w3.org/2000/svg">
<g clip-path="url(#clip0_162_4016)">
<path d="M3.99998 14.6666C5.24497 14.6666 6.29069 13.8134 6.58436 12.6598C6.6752 12.303 6.96512 11.9999 7.33331 11.9999H12M3.99998 14.6666C2.52722 14.6666 1.33331 13.4727 1.33331 11.9999V3.33325C1.33331 2.22868 2.22874 1.33325 3.33331 1.33325H9.99998C11.1045 1.33325 12 2.22868 12 3.33325V11.9999M3.99998 14.6666H12C13.245 14.6666 14.2907 13.8134 14.5844 12.6598C14.6752 12.303 14.3682 11.9999 14 11.9999H12M4.66665 6.66659L5.83519 7.60142C6.11378 7.82429 6.51845 7.78834 6.75338 7.51985L8.66665 5.33325" stroke="white" stroke-width="1.5" stroke-linecap="round"/>
</g>
<defs>
<clipPath id="clip0_162_4016">
<rect width="16" height="16" fill="white"/>
</clipPath>
</defs>
</svg>
