<svg width="16" height="16" viewBox="0 0 16 16" fill="none" xmlns="http://www.w3.org/2000/svg">
<path opacity="0.4" d="M1.33325 4.66666C1.33325 3.1939 2.52716 2 3.99991 2L11.9999 2C13.4727 2 14.6666 3.19391 14.6666 4.66666L14.6666 11.3333C14.6666 12.8061 13.4727 14 11.9999 14L3.99991 14C2.52716 14 1.33325 12.8061 1.33325 11.3333L1.33325 4.66666Z" fill="currentColor"/>
<path fill-rule="evenodd" clip-rule="evenodd" d="M9.49991 9.33332C9.49991 9.05718 9.72376 8.83332 9.99991 8.83332H11.9999C12.276 8.83332 12.4999 9.05718 12.4999 9.33332C12.4999 9.60946 12.276 9.83332 11.9999 9.83332H9.99991C9.72376 9.83332 9.49991 9.60946 9.49991 9.33332ZM9.49991 11.3333C9.49991 11.0572 9.72376 10.8333 9.99991 10.8333H11.9999C12.276 10.8333 12.4999 11.0572 12.4999 11.3333C12.4999 11.6095 12.276 11.8333 11.9999 11.8333H9.99991C9.72376 11.8333 9.49991 11.6095 9.49991 11.3333Z" fill="currentColor"/>
<path d="M5.99991 4H4.66658C3.9302 4 3.33325 4.59695 3.33325 5.33333C3.33325 6.06971 3.9302 6.66666 4.66658 6.66666H5.99991C6.73629 6.66666 7.33324 6.06971 7.33324 5.33333C7.33324 4.59695 6.73629 4 5.99991 4Z" fill="currentColor"/>
</svg>
