<svg width="16" height="16" viewBox="0 0 16 16" fill="none" xmlns="http://www.w3.org/2000/svg">
<path d="M9.46668 7.33366L12 10.667H4.00001L6.00001 8.06699L7.40001 9.86699L9.33334 7.33366H9.46668ZM5.66668 7.33366C6.20001 7.33366 6.66668 6.86699 6.66668 6.33366C6.66668 5.80033 6.20001 5.33366 5.66668 5.33366C5.13334 5.33366 4.66668 5.80033 4.66668 6.33366C4.66668 6.86699 5.13334 7.33366 5.66668 7.33366ZM14.6667 4.00033V12.0003C14.6667 12.7337 14.0667 13.3337 13.3333 13.3337H2.66668C1.93334 13.3337 1.33334 12.7337 1.33334 12.0003V4.00033C1.33334 3.26699 1.93334 2.66699 2.66668 2.66699H13.3333C14.0667 2.66699 14.6667 3.26699 14.6667 4.00033ZM13.3333 5.86699V4.00033H2.66668V12.0003H13.3333V5.86699Z" fill="#05194A"/>
</svg>
