<svg width="16" height="16" viewBox="0 0 16 16" fill="none" xmlns="http://www.w3.org/2000/svg">
<path d="M7.83999 5.99967H9.17332L7.70665 12.6663H6.37332L7.83999 5.99967ZM8.95999 3.33301C8.82813 3.33301 8.69924 3.37211 8.58961 3.44536C8.47997 3.51862 8.39453 3.62273 8.34407 3.74455C8.29361 3.86637 8.28041 4.00041 8.30613 4.12973C8.33185 4.25906 8.39535 4.37784 8.48858 4.47108C8.58182 4.56431 8.70061 4.62781 8.82993 4.65353C8.95925 4.67925 9.09329 4.66605 9.21511 4.61559C9.33693 4.56514 9.44105 4.47969 9.5143 4.37005C9.58756 4.26042 9.62665 4.13153 9.62665 3.99967C9.62665 3.82286 9.55642 3.65329 9.43139 3.52827C9.30637 3.40325 9.1368 3.33301 8.95999 3.33301Z" fill="#05194A"/>
</svg>
