<svg width="16" height="16" viewBox="0 0 16 16" fill="none" xmlns="http://www.w3.org/2000/svg">
<path fill-rule="evenodd" clip-rule="evenodd" d="M6.56074 3.37469C6.32113 3.97862 6.1261 4.71221 5.99432 5.53578C6.63192 5.47737 7.30556 5.44629 8.00067 5.44629C8.69577 5.44629 9.36941 5.47737 10.007 5.53578C9.87523 4.71221 9.6802 3.97862 9.44059 3.37469C9.21028 2.79422 8.94872 2.35875 8.68418 2.07674C8.42065 1.79581 8.1895 1.70145 8.00067 1.70145C7.81183 1.70145 7.58068 1.79581 7.31715 2.07674C7.05261 2.35875 6.79105 2.79422 6.56074 3.37469ZM5.62015 2.99539C5.32117 3.74893 5.09176 4.65667 4.95115 5.66019C4.25902 5.7631 3.62739 5.90041 3.07956 6.0661C2.44214 6.25888 1.8894 6.49859 1.48471 6.78797C1.43358 6.82453 1.38312 6.86317 1.33401 6.90391C1.78071 4.12025 3.90141 1.90207 6.62125 1.33301C6.60776 1.34685 6.59438 1.36084 6.58112 1.37498C6.19926 1.78206 5.87871 2.3437 5.62015 2.99539ZM9.38008 1.33301C9.39357 1.34685 9.40695 1.36084 9.42021 1.37498C9.80207 1.78206 10.1226 2.3437 10.3812 2.99539C10.6802 3.74893 10.9096 4.65667 11.0502 5.66019C11.7423 5.7631 12.3739 5.90041 12.9218 6.0661C13.5592 6.25889 14.1119 6.49859 14.5166 6.78797C14.5677 6.82453 14.6182 6.86318 14.6673 6.90391C14.2206 4.12025 12.0999 1.90207 9.38008 1.33301ZM14.6673 9.09523C14.6182 9.13598 14.5678 9.17463 14.5166 9.21119C14.1119 9.50058 13.5592 9.74028 12.9218 9.93307C12.3739 10.0988 11.7423 10.2361 11.0502 10.339C10.9096 11.3425 10.6802 12.2502 10.3812 13.0038C10.1226 13.6555 9.80207 14.2171 9.42021 14.6242C9.40688 14.6384 9.39344 14.6525 9.37988 14.6664C12.0999 14.0974 14.2207 11.879 14.6673 9.09523ZM6.62145 14.6664C6.60789 14.6525 6.59445 14.6384 6.58112 14.6242C6.19926 14.2171 5.87871 13.6555 5.62015 13.0038C5.32117 12.2502 5.09176 11.3425 4.95115 10.339C4.25902 10.2361 3.62739 10.0988 3.07956 9.93307C2.44214 9.74028 1.8894 9.50058 1.48471 9.21119C1.43357 9.17463 1.3831 9.13598 1.33398 9.09523C1.78063 11.8791 3.90145 14.0974 6.62145 14.6664ZM3.37066 8.95482C3.80032 9.08477 4.29467 9.19742 4.83953 9.28781C4.80869 8.86903 4.79268 8.43842 4.79268 7.99958C4.79268 7.56074 4.80869 7.13014 4.83954 6.71135C4.29467 6.80175 3.80032 6.91439 3.37066 7.04434C2.78592 7.2212 2.34961 7.42165 2.07079 7.62102C1.77882 7.8298 1.75354 7.96513 1.75354 7.99958C1.75354 8.03404 1.77882 8.16936 2.07079 8.37815C2.34961 8.57752 2.78592 8.77797 3.37066 8.95482ZM5.80573 7.99958C5.80573 8.49064 5.82696 8.96755 5.8669 9.42491C6.53285 9.49376 7.25056 9.53156 8.00067 9.53156C8.75077 9.53156 9.46849 9.49376 10.1344 9.42491C10.1744 8.96755 10.1956 8.49064 10.1956 7.99958C10.1956 7.50852 10.1744 7.03162 10.1344 6.57425C9.46849 6.50541 8.75077 6.4676 8.00067 6.4676C7.25056 6.4676 6.53285 6.50541 5.8669 6.57425C5.82696 7.03162 5.80573 7.50852 5.80573 7.99958ZM6.56074 12.6245C6.32113 12.0205 6.1261 11.287 5.99432 10.4634C6.63192 10.5218 7.30556 10.5529 8.00067 10.5529C8.69577 10.5529 9.36941 10.5218 10.007 10.4634C9.87523 11.287 9.6802 12.0205 9.44059 12.6245C9.21028 13.2049 8.94872 13.6404 8.68418 13.9224C8.42065 14.2034 8.1895 14.2977 8.00067 14.2977C7.81183 14.2977 7.58068 14.2034 7.31715 13.9224C7.05261 13.6404 6.79105 13.2049 6.56074 12.6245ZM12.6307 8.95482C12.201 9.08477 11.7067 9.19742 11.1618 9.28781C11.1926 8.86903 11.2086 8.43842 11.2086 7.99958C11.2086 7.56074 11.1926 7.13014 11.1618 6.71135C11.7067 6.80175 12.201 6.91439 12.6307 7.04434C13.2154 7.2212 13.6517 7.42165 13.9305 7.62102C14.2225 7.8298 14.2478 7.96513 14.2478 7.99958C14.2478 8.03404 14.2225 8.16936 13.9305 8.37815C13.6517 8.57752 13.2154 8.77797 12.6307 8.95482Z" fill="#616161"/>
</svg>
