<svg width="16" height="16" viewBox="0 0 16 16" fill="none" xmlns="http://www.w3.org/2000/svg">
<path d="M7.33334 11.3337H4.66668C3.78262 11.3337 2.93478 10.9825 2.30965 10.3573C1.68453 9.73223 1.33334 8.88438 1.33334 8.00033C1.33334 7.11627 1.68453 6.26842 2.30965 5.6433C2.93478 5.01818 3.78262 4.66699 4.66668 4.66699H7.33334V6.00033H4.66668C4.13624 6.00033 3.62754 6.21104 3.25246 6.58611C2.87739 6.96118 2.66668 7.46989 2.66668 8.00033C2.66668 8.53076 2.87739 9.03947 3.25246 9.41454C3.62754 9.78961 4.13624 10.0003 4.66668 10.0003H7.33334V11.3337ZM11.3333 4.66699H8.66668V6.00033H11.3333C11.8638 6.00033 12.3725 6.21104 12.7476 6.58611C13.1226 6.96118 13.3333 7.46989 13.3333 8.00033C13.3333 8.53076 13.1226 9.03947 12.7476 9.41454C12.3725 9.78961 11.8638 10.0003 11.3333 10.0003H8.66668V11.3337H11.3333C12.2174 11.3337 13.0652 10.9825 13.6904 10.3573C14.3155 9.73223 14.6667 8.88438 14.6667 8.00033C14.6667 7.11627 14.3155 6.26842 13.6904 5.6433C13.0652 5.01818 12.2174 4.66699 11.3333 4.66699ZM10.6667 7.33366H5.33334V8.66699H10.6667V7.33366Z" fill="#05194A"/>
</svg>
