<svg width="16" height="16" viewBox="0 0 16 16" fill="none" xmlns="http://www.w3.org/2000/svg">
<path d="M13.334 9.33301L13.9602 8.70678C14.3507 8.31626 14.3507 7.68309 13.9602 7.29257L13.334 6.66634" stroke="#616161" stroke-width="1.5" stroke-linecap="round" stroke-linejoin="round"/>
<path d="M14.0007 8.00033H8.66732M4.00065 13.3337C2.52789 13.3337 1.33398 12.1398 1.33398 10.667V5.33366C1.33398 3.8609 2.52789 2.66699 4.00065 2.66699M4.00065 13.3337C5.47341 13.3337 6.66732 12.1398 6.66732 10.667V5.33366C6.66732 3.8609 5.47341 2.66699 4.00065 2.66699M4.00065 13.3337H9.33399C10.8067 13.3337 12.0007 12.1398 12.0007 10.667M4.00065 2.66699H9.33399C10.8067 2.66699 12.0007 3.8609 12.0007 5.33366" stroke="#616161" stroke-width="1.5" stroke-linecap="round"/>
</svg>
