<svg width="14" height="14" viewBox="0 0 14 14" fill="none" xmlns="http://www.w3.org/2000/svg">
<g clip-path="url(#clip0_2061_76199)">
<path d="M10.5 8.1665L10.9596 7.70694C11.3501 7.31642 11.3501 6.68326 10.9596 6.29273L10.5 5.83317" stroke="currentColor" stroke-width="1.5" stroke-linecap="round" stroke-linejoin="round"/>
<path d="M11.0833 7L7.58325 7M2.33325 10.072L2.33325 4.23869M9.33325 10.072C9.33325 10.7164 8.81092 11.2387 8.16658 11.2387H5.83325M9.33325 4.23869C9.33325 3.59436 8.81092 3.07203 8.16658 3.07203L5.83325 3.07203M2.85277 11.585L4.01944 12.3628C4.79475 12.8797 5.83325 12.3239 5.83325 11.3921L5.83325 2.91863C5.83325 1.98682 4.79475 1.43103 4.01944 1.9479L2.85277 2.72568C2.5282 2.94206 2.33325 3.30633 2.33325 3.69641L2.33325 10.6143C2.33325 11.0044 2.5282 11.3687 2.85277 11.585Z" stroke="currentColor" stroke-width="1.5" stroke-linecap="round"/>
</g>
<defs>
<clipPath id="clip0_2061_76199">
<rect width="14" height="14" fill="currentColor"/>
</clipPath>
</defs>
</svg>
