<svg width="16" height="16" viewBox="0 0 16 16" fill="none" xmlns="http://www.w3.org/2000/svg">
<path opacity="0.4" d="M1.33325 4.66666C1.33325 3.1939 2.52716 2 3.99991 2L11.9999 2C13.4727 2 14.6666 3.19391 14.6666 4.66666L14.6666 11.3333C14.6666 12.8061 13.4727 14 11.9999 14L3.99991 14C2.52716 14 1.33325 12.8061 1.33325 11.3333L1.33325 4.66666Z" fill="currentColor"/>
<path fill-rule="evenodd" clip-rule="evenodd" d="M3.58403 5.0562C3.7372 4.82643 4.04764 4.76435 4.2774 4.91752L6.7982 6.59805C7.52598 7.08324 8.47411 7.08324 9.20189 6.59805L11.7227 4.91752C11.9525 4.76435 12.2629 4.82643 12.4161 5.0562C12.5692 5.28596 12.5072 5.5964 12.2774 5.74957L9.75659 7.4301C8.69291 8.13922 7.30718 8.13922 6.2435 7.4301L3.7227 5.74957C3.49294 5.5964 3.43085 5.28596 3.58403 5.0562Z" fill="currentColor"/>
</svg>
