<svg width="34" height="34" viewBox="0 0 34 34" fill="none" xmlns="http://www.w3.org/2000/svg">
<path opacity="0.4" d="M17 2.83337C19.3298 2.83337 21.6235 3.40793 23.6782 4.50616C25.7328 5.60438 27.4849 7.19237 28.7792 9.12946C30.0735 11.0666 30.8701 13.293 31.0985 15.6115C31.3268 17.93 30.9799 20.269 30.0883 22.4214C29.1968 24.5738 27.7882 26.4731 25.9873 27.951C24.1864 29.429 22.0488 30.44 19.7638 30.8945C17.4789 31.349 15.1171 31.233 12.8877 30.5567C10.6583 29.8804 8.63006 28.6648 6.9827 27.0174L12.0271 21.973C12.8449 22.7908 13.8518 23.3943 14.9585 23.7301C16.0653 24.0658 17.2377 24.1234 18.3721 23.8978C19.5064 23.6721 20.5676 23.1702 21.4616 22.4365C22.3557 21.7028 23.055 20.7599 23.4976 19.6914C23.9401 18.6229 24.1124 17.4617 23.999 16.3107C23.8857 15.1597 23.4902 14.0544 22.8476 13.0928C22.2051 12.1312 21.3353 11.3428 20.3153 10.7976C19.2953 10.2524 18.1566 9.96718 17 9.96718L17 2.83337Z" fill="white"/>
<path d="M6.98269 27.0174C5.00145 25.0361 3.65221 22.5119 3.10558 19.7638C2.55896 17.0158 2.83951 14.1673 3.91175 11.5787C4.98399 8.99007 6.79977 6.77754 9.12946 5.22089C11.4592 3.66423 14.1981 2.83337 17 2.83337L17 9.96718C15.6091 9.96718 14.2493 10.3797 13.0928 11.1524C11.9362 11.9252 11.0348 13.0236 10.5025 14.3087C9.97023 15.5938 9.83095 17.0078 10.1023 18.3721C10.3737 19.7363 11.0435 20.9895 12.0271 21.973L6.98269 27.0174Z" fill="white"/>
<path d="M31.1667 17C31.1667 18.8604 30.8003 20.7026 30.0883 22.4214C29.3764 24.1402 28.3329 25.7019 27.0174 27.0174L21.973 21.973C22.6261 21.32 23.1441 20.5447 23.4976 19.6914C23.851 18.8381 24.0329 17.9236 24.0329 17H31.1667Z" fill="white"/>
</svg>
