<svg width="14" height="14" viewBox="0 0 14 14" fill="none" xmlns="http://www.w3.org/2000/svg">
<g clip-path="url(#clip0_1966_75610)">
<path d="M7.00008 1.1665C7.95938 1.1665 8.90387 1.40309 9.7499 1.8553C10.5959 2.30751 11.3174 2.96138 11.8503 3.75901C12.3833 4.55664 12.7113 5.47339 12.8053 6.42807C12.8994 7.38275 12.7565 8.34588 12.3894 9.23216M7.00008 1.1665V4.10396M7.00008 1.1665C5.84636 1.1665 4.71854 1.50862 3.75926 2.1496C2.79997 2.79057 2.0523 3.70162 1.61079 4.76752C1.16928 5.83342 1.05376 7.00631 1.27884 8.13786C1.50392 9.26942 2.05949 10.3088 2.8753 11.1246M12.3894 9.23216C12.0223 10.1184 11.4423 10.9005 10.7007 11.5091C9.95917 12.1176 9.07898 12.5339 8.13811 12.7211C7.19725 12.9082 6.22475 12.8605 5.30676 12.582C4.38877 12.3035 3.55362 11.803 2.8753 11.1246M12.3894 9.23216C12.6825 8.52442 12.8334 7.76588 12.8334 6.99984L9.89597 6.99984C9.89597 7.38013 9.82106 7.7567 9.67553 8.10804M12.3894 9.23216C12.0962 9.93989 11.6665 10.583 11.1249 11.1246L9.04778 9.04753C9.31669 8.77863 9.53 8.45939 9.67553 8.10804M2.8753 11.1246L4.95239 9.04754M4.95239 9.04754C5.28913 9.38428 5.70373 9.63278 6.15945 9.77102C6.61518 9.90927 7.09796 9.93298 7.56504 9.84008C8.03212 9.74717 8.46908 9.5405 8.83721 9.23838C9.20534 8.93627 9.49328 8.54802 9.67553 8.10804M4.95239 9.04754C4.54739 8.64254 4.27158 8.12654 4.15985 7.5648C4.04811 7.00305 4.10546 6.42078 4.32464 5.89163C4.54382 5.36248 4.91499 4.9102 5.39122 4.592C5.86744 4.2738 6.42733 4.10396 7.00008 4.10396M9.67553 8.10804C9.85778 7.66806 9.9287 7.18993 9.88202 6.71599C9.83534 6.24205 9.6725 5.78694 9.40792 5.39097C9.14334 4.995 8.78519 4.67039 8.36519 4.4459C7.9452 4.2214 7.47631 4.10396 7.00008 4.10396" stroke="#05194A" stroke-width="1.5"/>
</g>
<defs>
<clipPath id="clip0_1966_75610">
<rect width="14" height="14" fill="white"/>
</clipPath>
</defs>
</svg>
