<svg width="24" height="24" viewBox="0 0 24 24" fill="none" xmlns="http://www.w3.org/2000/svg">
<path opacity="0.4" d="M13.202 0.666626H10.7979C9.47021 0.666626 8.39389 1.68145 8.39389 2.93329C8.39389 4.36584 6.86113 5.27661 5.60292 4.5917L5.47513 4.52213C4.32529 3.89621 2.85499 4.26766 2.19113 5.35179L0.98911 7.31478C0.325251 8.39891 0.719215 9.78518 1.86905 10.4111C3.12786 11.0963 3.12786 12.9036 1.86905 13.5888C0.719213 14.2147 0.325249 15.601 0.989109 16.6851L2.19113 18.6481C2.85499 19.7323 4.32529 20.1037 5.47513 19.4778L5.60292 19.4082C6.86113 18.7233 8.39389 19.6341 8.39389 21.0666C8.39389 22.3185 9.47021 23.3333 10.7979 23.3333H13.202C14.5297 23.3333 15.606 22.3185 15.606 21.0666C15.606 19.6341 17.1388 18.7233 18.397 19.4082L18.5248 19.4778C19.6746 20.1037 21.1449 19.7322 21.8088 18.6481L23.0108 16.6851C23.6747 15.601 23.2807 14.2147 22.1309 13.5888C20.8721 12.9036 20.8721 11.0964 22.1309 10.4111C23.2807 9.7852 23.6747 8.39893 23.0108 7.3148L21.8088 5.35181C21.1449 4.26768 19.6746 3.89623 18.5248 4.52215L18.397 4.59171C17.1388 5.27663 15.606 4.36585 15.606 2.93329C15.606 1.68145 14.5297 0.666626 13.202 0.666626Z" fill="white"/>
<path d="M16.25 12C16.25 14.3472 14.3472 16.25 12 16.25C9.65279 16.25 7.75 14.3472 7.75 12C7.75 9.65279 9.65279 7.75 12 7.75C14.3472 7.75 16.25 9.65279 16.25 12Z" fill="white"/>
</svg>
