<svg width="14" height="13" viewBox="0 0 14 13" fill="none" xmlns="http://www.w3.org/2000/svg">
<path opacity="0.4" fill-rule="evenodd" clip-rule="evenodd" d="M0.5 12C0.5 11.7239 0.723858 11.5 1 11.5H13C13.2761 11.5 13.5 11.7239 13.5 12C13.5 12.2761 13.2761 12.5 13 12.5H1C0.723858 12.5 0.5 12.2761 0.5 12Z" fill="#F38630"/>
<path d="M3.87975 9.99192L6.16823 9.665C6.49833 9.61784 6.80424 9.46489 7.04003 9.2291L11.4589 4.81027C11.4589 4.81027 10.3691 4.81027 9.27936 3.72052C8.18961 2.63077 8.18961 1.54102 8.18961 1.54102L3.77078 5.95985C3.53499 6.19564 3.38203 6.50154 3.33488 6.83165L3.00795 9.12012C2.9353 9.62867 3.3712 10.0646 3.87975 9.99192Z" fill="#F38630"/>
<path opacity="0.4" d="M12.5504 1.54114L11.4607 0.451389C10.8588 -0.150463 9.88301 -0.150463 9.28116 0.451389L8.19141 1.54114C8.19141 1.54114 8.19141 2.63089 9.28116 3.72064C10.3709 4.81039 11.4607 4.81039 11.4607 4.81039L12.5504 3.72064C13.1523 3.11879 13.1523 2.14299 12.5504 1.54114Z" fill="#F38630"/>
</svg>
