<svg width="27" height="26" viewBox="0 0 27 26" fill="none" xmlns="http://www.w3.org/2000/svg">
<ellipse opacity="0.4" cx="10.1667" cy="20.0833" rx="9.91667" ry="5.66667" fill="white"/>
<ellipse cx="10.1667" cy="5.91667" rx="5.66667" ry="5.66667" fill="white"/>
<path fill-rule="evenodd" clip-rule="evenodd" d="M21.8542 14.4167C21.8542 15.0035 22.3299 15.4792 22.9167 15.4792C23.5035 15.4792 23.9792 15.0035 23.9792 14.4167V12.6458H25.75C26.3368 12.6458 26.8125 12.1701 26.8125 11.5833C26.8125 10.9965 26.3368 10.5208 25.75 10.5208H23.9792V8.75C23.9792 8.1632 23.5035 7.6875 22.9167 7.6875C22.3299 7.6875 21.8542 8.1632 21.8542 8.75L21.8542 10.5208H20.0834C19.4966 10.5208 19.0209 10.9965 19.0209 11.5833C19.0209 12.1701 19.4966 12.6458 20.0834 12.6458H21.8542L21.8542 14.4167Z" fill="white"/>
</svg>
