<svg width="34" height="34" viewBox="0 0 34 34" fill="none" xmlns="http://www.w3.org/2000/svg">
<path d="M9.91663 19.8334C12.2683 19.8334 14.1666 17.935 14.1666 15.5834C14.1666 13.2317 12.2683 11.3334 9.91663 11.3334C7.56496 11.3334 5.66663 13.2317 5.66663 15.5834C5.66663 17.935 7.56496 19.8334 9.91663 19.8334ZM9.91663 14.1667C10.6958 14.1667 11.3333 14.8042 11.3333 15.5834C11.3333 16.3625 10.6958 17 9.91663 17C9.13746 17 8.49996 16.3625 8.49996 15.5834C8.49996 14.8042 9.13746 14.1667 9.91663 14.1667ZM26.9166 9.91671H15.5833V21.25H4.24996V7.08337H1.41663V28.3334H4.24996V24.0834H29.75V28.3334H32.5833V15.5834C32.5833 12.4525 30.0475 9.91671 26.9166 9.91671ZM29.75 21.25H18.4166V12.75H26.9166C28.475 12.75 29.75 14.025 29.75 15.5834V21.25Z" fill="inherit"/>
</svg>
