<svg width="25" height="30" viewBox="0 0 25 30" fill="none" xmlns="http://www.w3.org/2000/svg">
<path fill-rule="evenodd" clip-rule="evenodd" d="M20.7487 17.082C20.3337 17.4969 20.3337 18.1697 20.7487 18.5846C21.1636 18.9995 21.8363 18.9995 22.2513 18.5846L24.0829 16.753C25.051 15.7848 25.051 14.2151 24.0829 13.2469L22.2513 11.4153C21.8363 11.0004 21.1636 11.0004 20.7487 11.4153C20.3337 11.8303 20.3337 12.503 20.7487 12.9179L21.7682 13.9375L14.4166 13.9375C13.8298 13.9375 13.3541 14.4132 13.3541 15C13.3541 15.5868 13.8298 16.0625 14.4166 16.0625L21.7682 16.0625L20.7487 17.082Z" fill="white"/>
<path fill-rule="evenodd" clip-rule="evenodd" d="M11.5834 4.39783L15.8334 4.39783C17.985 4.39783 19.7292 6.14205 19.7292 8.29366C19.7292 8.88046 19.2535 9.35616 18.6667 9.35616C18.0799 9.35616 17.6042 8.88046 17.6042 8.29366C17.6042 7.31566 16.8114 6.52283 15.8334 6.52283H11.5834V4.39783ZM18.6667 21.3978C19.2535 21.3978 19.7292 21.8735 19.7292 22.4603C19.7292 24.6119 17.985 26.3562 15.8334 26.3562H11.5834V24.2312H15.8334C16.8114 24.2312 17.6042 23.4383 17.6042 22.4603C17.6042 21.8735 18.0799 21.3978 18.6667 21.3978Z" fill="white"/>
<path opacity="0.4" d="M0.25 6.49545C0.25 5.47311 0.79109 4.51842 1.69192 3.95132L6.54909 1.35205C8.70098 -0.00260829 11.5834 1.45404 11.5834 3.89618V26.1039C11.5834 28.546 8.70098 30.0027 6.54909 28.648L1.69195 26.0442C0.791114 25.4771 0.250024 24.5224 0.250024 23.5L0.25 6.49545Z" fill="white"/>
</svg>
