<svg width="14" height="14" viewBox="0 0 14 14" fill="none" xmlns="http://www.w3.org/2000/svg">
<g clip-path="url(#clip0_1966_75624)">
<path d="M4.66675 6.99984V9.33317M9.33341 6.99984L9.33341 9.33317M7.00008 5.83317V10.4998M9.43862 12.8332L4.56154 12.8332C3.21478 12.8332 2.123 11.7913 2.123 10.5061L2.123 7.66078C2.123 7.24764 1.95103 6.85143 1.6449 6.5593C0.935634 5.88246 1.02784 4.76103 1.83904 4.19804L5.5658 1.61158C6.42088 1.01814 7.57929 1.01814 8.43436 1.61158L12.1611 4.19804C12.9723 4.76103 13.0645 5.88246 12.3553 6.5593C12.0491 6.85143 11.8772 7.24764 11.8772 7.66078L11.8772 10.5061C11.8772 11.7913 10.7854 12.8332 9.43862 12.8332Z" stroke="currentColor" stroke-width="1.5" stroke-linecap="round"/>
</g>
<defs>
<clipPath id="clip0_1966_75624">
<rect width="14" height="14" fill="white"/>
</clipPath>
</defs>
</svg>
