<svg width="30" height="30" viewBox="0 0 30 30" fill="none" xmlns="http://www.w3.org/2000/svg">
<path opacity="0.4" d="M26.25 22.5V7.5C26.25 4.73858 24.0114 2.5 21.25 2.5H8.75C5.98858 2.5 3.75 4.73858 3.75 7.5V22.5C3.75 25.2614 5.98858 27.5 8.75 27.5H21.25C24.0114 27.5 26.25 25.2614 26.25 22.5Z" fill="white"/>
<path fill-rule="evenodd" clip-rule="evenodd" d="M9.0625 8.75C9.0625 8.23223 9.48223 7.8125 10 7.8125H15C15.5178 7.8125 15.9375 8.23223 15.9375 8.75C15.9375 9.26777 15.5178 9.6875 15 9.6875H10C9.48223 9.6875 9.0625 9.26777 9.0625 8.75Z" fill="white"/>
<path fill-rule="evenodd" clip-rule="evenodd" d="M9.0625 15C9.0625 14.4822 9.48223 14.0625 10 14.0625H20C20.5178 14.0625 20.9375 14.4822 20.9375 15C20.9375 15.5178 20.5178 15.9375 20 15.9375H10C9.48223 15.9375 9.0625 15.5178 9.0625 15Z" fill="white"/>
<path fill-rule="evenodd" clip-rule="evenodd" d="M9.0625 21.25C9.0625 20.7322 9.48223 20.3125 10 20.3125H20C20.5178 20.3125 20.9375 20.7322 20.9375 21.25C20.9375 21.7678 20.5178 22.1875 20 22.1875H10C9.48223 22.1875 9.0625 21.7678 9.0625 21.25Z" fill="white"/>
<path fill-rule="evenodd" clip-rule="evenodd" d="M22.5 1.5625C23.0178 1.5625 23.4375 1.98223 23.4375 2.5V5.3125L26.25 5.3125C26.7678 5.3125 27.1875 5.73223 27.1875 6.25C27.1875 6.76777 26.7678 7.1875 26.25 7.1875H23.4375V10C23.4375 10.5178 23.0178 10.9375 22.5 10.9375C21.9822 10.9375 21.5625 10.5178 21.5625 10V7.1875L18.75 7.1875C18.2322 7.1875 17.8125 6.76777 17.8125 6.25C17.8125 5.73223 18.2322 5.3125 18.75 5.3125L21.5625 5.3125V2.5C21.5625 1.98223 21.9822 1.5625 22.5 1.5625Z" fill="white"/>
</svg>
