<svg width="14" height="14" viewBox="0 0 14 14" fill="none" xmlns="http://www.w3.org/2000/svg">
<g clip-path="url(#clip0_1966_75634)">
<path d="M11.2728 5.6875V5.03125C11.2728 3.94394 10.4245 3.0625 9.37795 3.0625H7.42165C7.08452 3.0625 6.75349 2.96905 6.46271 2.79179L5.19787 2.02071C4.90709 1.84345 4.57606 1.75 4.23892 1.75L3.06164 1.75C2.01512 1.75 1.16675 2.63144 1.16675 3.71875L1.16675 10.2813C1.16675 11.3686 2.01512 12.25 3.06164 12.25H8.57909C9.46656 12.25 10.289 11.7662 10.7456 10.9756L12.6514 7.67528C13.1566 6.80046 12.5501 5.6875 11.5682 5.6875H11.2728ZM11.2728 5.6875L5.96682 5.6875C4.96837 5.6875 4.06357 6.29843 3.65806 7.24639L1.79838 11.5938" stroke="#05194A" stroke-width="1.5" stroke-linecap="round" stroke-linejoin="round"/>
</g>
<defs>
<clipPath id="clip0_1966_75634">
<rect width="14" height="14" fill="white"/>
</clipPath>
</defs>
</svg>
