<svg width="31" height="20" viewBox="0 0 31 20" fill="none" xmlns="http://www.w3.org/2000/svg">
<path d="M4.37496 7.87496C2.41895 7.87496 0.833293 6.2893 0.833293 4.33329C0.833293 2.37728 2.41895 0.791626 4.37496 0.791626C6.33097 0.791626 7.91663 2.37728 7.91663 4.33329C7.91663 6.2893 6.33097 7.87496 4.37496 7.87496Z" fill="white"/>
<path opacity="0.4" d="M4.37496 19.2083C2.41895 19.2083 0.833293 17.6227 0.833293 15.6667C0.833293 13.7107 2.41895 12.125 4.37496 12.125C6.33097 12.125 7.91663 13.7107 7.91663 15.6667C7.91663 17.6227 6.33097 19.2083 4.37496 19.2083Z" fill="white"/>
<path opacity="0.4" fill-rule="evenodd" clip-rule="evenodd" d="M11.1041 1.85413C11.1041 1.26732 11.5798 0.791626 12.1666 0.791626L20.6666 0.791626C21.2534 0.791626 21.7291 1.26732 21.7291 1.85413C21.7291 2.44093 21.2534 2.91663 20.6666 2.91663L12.1666 2.91663C11.5798 2.91663 11.1041 2.44093 11.1041 1.85413Z" fill="white"/>
<path fill-rule="evenodd" clip-rule="evenodd" d="M11.1041 13.1875C11.1041 12.6007 11.5798 12.125 12.1666 12.125H20.6666C21.2534 12.125 21.7291 12.6007 21.7291 13.1875C21.7291 13.7743 21.2534 14.25 20.6666 14.25H12.1666C11.5798 14.25 11.1041 13.7743 11.1041 13.1875Z" fill="white"/>
<path opacity="0.4" fill-rule="evenodd" clip-rule="evenodd" d="M11.1041 6.8125C11.1041 6.2257 11.5798 5.75 12.1666 5.75L29.1666 5.75C29.7534 5.75 30.2291 6.2257 30.2291 6.8125C30.2291 7.3993 29.7534 7.875 29.1666 7.875L12.1666 7.875C11.5798 7.875 11.1041 7.3993 11.1041 6.8125Z" fill="white"/>
<path fill-rule="evenodd" clip-rule="evenodd" d="M11.1041 18.1459C11.1041 17.5591 11.5798 17.0834 12.1666 17.0834H29.1666C29.7534 17.0834 30.2291 17.5591 30.2291 18.1459C30.2291 18.7327 29.7534 19.2084 29.1666 19.2084H12.1666C11.5798 19.2084 11.1041 18.7327 11.1041 18.1459Z" fill="white"/>
</svg>
