<svg width="20" height="20" viewBox="0 0 20 20" fill="none" xmlns="http://www.w3.org/2000/svg">
<path fill-rule="evenodd" clip-rule="evenodd" d="M4.58203 10.2082C4.58203 10.7835 5.0484 11.2498 5.6237 11.2498C6.19899 11.2498 6.66536 10.7835 6.66536 10.2082C6.66536 9.63287 6.19899 9.1665 5.6237 9.1665C5.0484 9.1665 4.58203 9.63287 4.58203 10.2082ZM9.79036 11.2498C9.21507 11.2498 8.7487 10.7835 8.7487 10.2082C8.7487 9.63287 9.21507 9.1665 9.79036 9.1665C10.3657 9.1665 10.832 9.63287 10.832 10.2082C10.832 10.7835 10.3657 11.2498 9.79036 11.2498ZM13.957 11.2498C13.3817 11.2498 12.9154 10.7835 12.9154 10.2082C12.9154 9.63287 13.3817 9.1665 13.957 9.1665C14.5323 9.1665 14.9987 9.63287 14.9987 10.2082C14.9987 10.7835 14.5323 11.2498 13.957 11.2498Z" fill="#123640"/>
</svg>
