<svg width="16" height="16" viewBox="0 0 16 16" fill="none" xmlns="http://www.w3.org/2000/svg">
<path d="M9.33331 7.99992H14.6666M9.33331 4.66659H14.6666M10.6666 11.3333H14.6666M6.66665 5.33325C6.66665 6.43782 5.77122 7.33325 4.66665 7.33325C3.56208 7.33325 2.66665 6.43782 2.66665 5.33325C2.66665 4.22868 3.56208 3.33325 4.66665 3.33325C5.77122 3.33325 6.66665 4.22868 6.66665 5.33325ZM7.99998 10.6666C7.99998 11.7712 6.5076 12.6666 4.66665 12.6666C2.8257 12.6666 1.33331 11.7712 1.33331 10.6666C1.33331 9.56202 2.8257 8.66659 4.66665 8.66659C6.5076 8.66659 7.99998 9.56202 7.99998 10.6666Z" stroke="white" stroke-width="1.5" stroke-linecap="round" stroke-linejoin="round"/>
</svg>
