<svg width="14" height="14" viewBox="0 0 14 14" fill="none" xmlns="http://www.w3.org/2000/svg">
<path d="M3.31316 5.12985C3.53144 3.203 5.11643 1.75 7.00004 1.75C8.88366 1.75 10.4686 3.203 10.6869 5.12985L10.8881 6.90579C10.9381 7.34707 11.1169 7.76234 11.401 8.09669C12.0038 8.80623 11.5146 9.91667 10.5991 9.91667L3.40095 9.91667C2.48551 9.91667 1.99626 8.80623 2.59908 8.09669C2.88314 7.76234 3.06199 7.34707 3.11198 6.90579L3.31316 5.12985Z" stroke="currentColor" stroke-width="1.5" stroke-linejoin="round"/>
<path d="M8.75 11.0835C8.49527 11.7632 7.80793 12.2502 7 12.2502C6.19207 12.2502 5.50473 11.7632 5.25 11.0835" stroke="currentColor" stroke-width="1.5" stroke-linecap="round"/>
</svg>
