<svg width="16" height="16" viewBox="0 0 16 16" fill="none" xmlns="http://www.w3.org/2000/svg">
<path d="M4.66669 9.33325C5.77335 9.33325 6.66669 8.43992 6.66669 7.33325C6.66669 6.22659 5.77335 5.33325 4.66669 5.33325C3.56002 5.33325 2.66669 6.22659 2.66669 7.33325C2.66669 8.43992 3.56002 9.33325 4.66669 9.33325ZM4.66669 6.66659C5.03335 6.66659 5.33335 6.96659 5.33335 7.33325C5.33335 7.69992 5.03335 7.99992 4.66669 7.99992C4.30002 7.99992 4.00002 7.69992 4.00002 7.33325C4.00002 6.96659 4.30002 6.66659 4.66669 6.66659ZM12.6667 4.66659H7.33335V9.99992H2.00002V3.33325H0.666687V13.3333H2.00002V11.3333H14V13.3333H15.3334V7.33325C15.3334 5.85992 14.14 4.66659 12.6667 4.66659ZM14 9.99992H8.66669V5.99992H12.6667C13.4 5.99992 14 6.59992 14 7.33325V9.99992Z" fill="white"/>
</svg>
