<svg width="24" height="25" viewBox="0 0 24 25" fill="none" xmlns="http://www.w3.org/2000/svg">
<path fill-rule="evenodd" clip-rule="evenodd" d="M12 3.25C10.55 3.25 9.23854 3.8368 8.28765 4.78769C7.99476 5.08058 7.51989 5.08058 7.22699 4.78769C6.9341 4.4948 6.9341 4.01992 7.22699 3.72703C8.44768 2.50634 10.1362 1.75 12 1.75C13.8637 1.75 15.5522 2.50634 16.7729 3.72703C17.0658 4.01992 17.0658 4.4948 16.7729 4.78769C16.48 5.08058 16.0052 5.08058 15.7123 4.78769C14.7614 3.8368 13.4499 3.25 12 3.25ZM12 6.25C11.3784 6.25 10.817 6.50102 10.409 6.90901C10.1161 7.2019 9.64121 7.2019 9.34831 6.90901C9.05542 6.61612 9.05542 6.14124 9.34831 5.84835C10.0261 5.17055 10.9646 4.75 12 4.75C13.0353 4.75 13.9738 5.17055 14.6516 5.84835C14.9445 6.14124 14.9445 6.61612 14.6516 6.90901C14.3587 7.2019 13.8838 7.2019 13.591 6.90901C13.183 6.50102 12.6215 6.25 12 6.25Z" fill="white"/>
<path opacity="0.4" d="M14 8.5C16.2091 8.5 18 10.2909 18 12.5L18 18.5C18 20.7091 16.2091 22.5 14 22.5L10 22.5C7.79086 22.5 6 20.7091 6 18.5L6 12.5C6 10.2909 7.79086 8.5 10 8.5L14 8.5Z" fill="white"/>
<path fill-rule="evenodd" clip-rule="evenodd" d="M9 13.25C9.41421 13.25 9.75 13.5858 9.75 14V17C9.75 17.4142 9.41421 17.75 9 17.75C8.58579 17.75 8.25 17.4142 8.25 17V14C8.25 13.5858 8.58579 13.25 9 13.25Z" fill="white"/>
</svg>
