<svg width="13" height="12" viewBox="0 0 13 12" fill="none" xmlns="http://www.w3.org/2000/svg">
<path d="M11.6577 7.74107C11.6577 7.74107 12.8245 8.96211 12.8247 9.92857C12.8247 10.8951 12.241 11.2411 11.6577 11.2411C11.0745 11.2409 10.4917 10.8948 10.4917 9.92857C10.4919 8.9665 11.6472 7.75207 11.6577 7.74107ZM5.42432 0.813336C6.09906 0.145565 7.19099 0.145544 7.86572 0.813336L11.9741 4.87974C12.0746 4.97917 12.1207 5.12107 12.0981 5.2606C12.0755 5.40004 11.9874 5.5202 11.8608 5.58287L10.0981 6.45494L6.49658 10.0194C5.82184 10.6872 4.72894 10.6872 4.0542 10.0194L1.31592 7.30845C0.977982 6.97399 0.807211 6.53427 0.807129 6.09459C0.807129 5.6548 0.9779 5.21428 1.31592 4.87974L5.42432 0.813336ZM7.25049 1.43541C6.91671 1.10506 6.37333 1.10506 6.03955 1.43541L1.93115 5.50181C1.88271 5.54976 1.84134 5.60198 1.80713 5.65709L9.73779 5.65709L10.9233 5.07017L7.25049 1.43541Z" fill="currentColor"/>
</svg>
