<svg width="44" height="44" viewBox="0 0 44 44" fill="none" xmlns="http://www.w3.org/2000/svg">
<path opacity="0.21" fill-rule="evenodd" clip-rule="evenodd" d="M0 22V32C0 38.6274 5.37258 44 12 44H22H32C38.6274 44 44 38.6274 44 32V22V12C44 5.37258 38.6274 0 32 0H22H12C5.37258 0 0 5.37258 0 12V22Z" fill="#8280FF"/>
<path opacity="0.587821" fill-rule="evenodd" clip-rule="evenodd" d="M15.1555 17.1064C15.1555 19.2665 16.9066 21.0175 19.0666 21.0175C21.2267 21.0175 22.9777 19.2665 22.9777 17.1064C22.9777 14.9464 21.2267 13.1953 19.0666 13.1953C16.9066 13.1953 15.1555 14.9464 15.1555 17.1064ZM24.9333 21.0163C24.9333 22.6364 26.2466 23.9497 27.8667 23.9497C29.4867 23.9497 30.8 22.6364 30.8 21.0163C30.8 19.3963 29.4867 18.083 27.8667 18.083C26.2466 18.083 24.9333 19.3963 24.9333 21.0163Z" fill="#8280FF"/>
<path fill-rule="evenodd" clip-rule="evenodd" d="M19.0503 22.9766C14.4338 22.9766 10.6462 25.3492 10.2672 30.0158C10.2466 30.27 10.7327 30.7988 10.9779 30.7988H27.13C27.8646 30.7988 27.876 30.2077 27.8646 30.0166C27.578 25.2188 23.7318 22.9766 19.0503 22.9766ZM27.4764 24.9313C28.7039 26.5653 29.4313 28.5964 29.4315 30.7973H33.2016C33.7321 30.7973 33.7403 30.354 33.7321 30.2107C33.5274 26.6515 30.8075 24.9675 27.4764 24.9313Z" fill="#8280FF"/>
</svg>
