<svg width="16" height="16" viewBox="0 0 16 16" fill="none" xmlns="http://www.w3.org/2000/svg">
<path d="M13 13.5C13 14.881 10.761 16 8 16C5.239 16 3 14.881 3 13.5V11.5H13V13.5Z" fill="url(#paint0_linear_370_8411)"/>
<path d="M13 11.5C13 12.88 10.761 14 8 14C5.239 14 3 12.88 3 11.5C3 10.12 5.239 9 8 9C10.761 9 13 10.12 13 11.5Z" fill="url(#paint1_linear_370_8411)"/>
<path d="M13 9.5C13 10.881 10.761 12 8 12C5.239 12 3 10.881 3 9.5V7.5H13V9.5Z" fill="url(#paint2_linear_370_8411)"/>
<path d="M13 7.5C13 8.88 10.761 10 8 10C5.239 10 3 8.88 3 7.5C3 6.12 5.239 5 8 5C10.761 5 13 6.12 13 7.5Z" fill="url(#paint3_linear_370_8411)"/>
<path d="M13 5.5C13 6.881 10.761 8 8 8C5.239 8 3 6.881 3 5.5V3.5H13V5.5Z" fill="url(#paint4_linear_370_8411)"/>
<path d="M13 3.5C13 4.88 10.761 6 8 6C5.239 6 3 4.88 3 3.5C3 2.12 5.239 1 8 1C10.761 1 13 2.12 13 3.5Z" fill="url(#paint5_linear_370_8411)"/>
<defs>
<linearGradient id="paint0_linear_370_8411" x1="5.652" y1="12.604" x2="7.302" y2="16.274" gradientUnits="userSpaceOnUse">
<stop stop-color="#FFA43D"/>
<stop offset="1" stop-color="#FB5937"/>
</linearGradient>
<linearGradient id="paint1_linear_370_8411" x1="13.014" y1="13.998" x2="8.702" y2="6.943" gradientUnits="userSpaceOnUse">
<stop stop-color="#FF8A69"/>
<stop offset="1" stop-color="#FFCD0F"/>
</linearGradient>
<linearGradient id="paint2_linear_370_8411" x1="5.652" y1="8.604" x2="7.302" y2="12.274" gradientUnits="userSpaceOnUse">
<stop stop-color="#FFA43D"/>
<stop offset="1" stop-color="#FB5937"/>
</linearGradient>
<linearGradient id="paint3_linear_370_8411" x1="13.014" y1="9.998" x2="8.702" y2="2.943" gradientUnits="userSpaceOnUse">
<stop stop-color="#FF8A69"/>
<stop offset="1" stop-color="#FFCD0F"/>
</linearGradient>
<linearGradient id="paint4_linear_370_8411" x1="5.652" y1="4.604" x2="7.302" y2="8.274" gradientUnits="userSpaceOnUse">
<stop stop-color="#FFA43D"/>
<stop offset="1" stop-color="#FB5937"/>
</linearGradient>
<linearGradient id="paint5_linear_370_8411" x1="13.014" y1="5.998" x2="8.702" y2="-1.057" gradientUnits="userSpaceOnUse">
<stop stop-color="#FF8A69"/>
<stop offset="1" stop-color="#FFCD0F"/>
</linearGradient>
</defs>
</svg>
