<svg width="16" height="16" viewBox="0 0 16 16" fill="none" xmlns="http://www.w3.org/2000/svg">
<ellipse cx="8" cy="10.9999" rx="4" ry="1.66667" stroke="currentColor" stroke-width="1.5" stroke-linejoin="round"/>
<circle cx="8" cy="5.33325" r="2" stroke="currentColor" stroke-width="1.5" stroke-linejoin="round"/>
<path d="M3.58398 12.6843C3.0068 12.6125 2.47592 12.4842 2.03125 12.3064C1.67757 12.1649 1.34051 11.9774 1.08008 11.7312C0.85081 11.5144 0.642306 11.2117 0.59375 10.8337L0.583008 10.6667L0.59375 10.5007C0.642117 10.1226 0.85082 9.8202 1.08008 9.60327C1.34047 9.35708 1.67759 9.16958 2.03125 9.02808C2.74301 8.74344 3.67496 8.58381 4.66602 8.58374C4.72146 8.58374 4.77699 8.58665 4.83203 8.58765C3.81684 9.01004 3.07826 9.62962 2.79492 10.3464C2.72217 10.3702 2.65268 10.3947 2.58789 10.4207C2.36849 10.5085 2.22517 10.5974 2.1416 10.6667C2.22516 10.7362 2.36805 10.8259 2.58789 10.9138C2.6141 10.9243 2.64141 10.934 2.66895 10.9441C2.66834 10.9626 2.66699 10.9811 2.66699 10.9998C2.66699 11.6237 3.00448 12.2043 3.58398 12.6843Z" fill="currentColor"/>
<path d="M12.4169 12.6843C12.9961 12.2044 13.3329 11.6235 13.3329 10.9998C13.3329 10.9811 13.3315 10.9626 13.3309 10.9441C13.3585 10.9339 13.3857 10.9243 13.412 10.9138C13.6312 10.8261 13.7737 10.7361 13.8573 10.6667C13.7737 10.5974 13.6311 10.5083 13.412 10.4207C13.3473 10.3948 13.2785 10.3701 13.2059 10.3464C12.9227 9.62947 12.1832 9.0101 11.1678 8.58765C11.2227 8.58666 11.2777 8.58374 11.3329 8.58374C12.3243 8.58374 13.2567 8.74331 13.9686 9.02808C14.3225 9.16963 14.6593 9.35691 14.9198 9.60327C15.1818 9.85108 15.4168 10.2102 15.4169 10.6667C15.4167 11.1233 15.1818 11.4834 14.9198 11.7312C14.6593 11.9774 14.3223 12.1649 13.9686 12.3064C13.5242 12.4841 12.9938 12.6125 12.4169 12.6843Z" fill="currentColor"/>
<path d="M11.3327 3.91699C12.4832 3.91699 13.4165 4.84956 13.4167 6C13.4165 7.15044 12.4832 8.08398 11.3327 8.08398C10.9398 8.08387 10.574 7.97154 10.2604 7.78223C10.6305 7.44045 10.9227 7.01607 11.1081 6.53809C11.1773 6.56714 11.253 6.5839 11.3327 6.58398C11.6548 6.58398 11.9165 6.32202 11.9167 6C11.9165 5.67798 11.6548 5.41699 11.3327 5.41699L11.3317 5.41797C11.3324 5.38984 11.3337 5.36131 11.3337 5.33301C11.3336 4.83648 11.2237 4.36574 11.029 3.94238C11.1283 3.92782 11.2294 3.91702 11.3327 3.91699Z" fill="currentColor"/>
<path d="M4.66602 3.91699C4.76958 3.91699 4.87118 3.92779 4.9707 3.94238C4.776 4.36571 4.66704 4.83652 4.66699 5.33301C4.66699 5.36131 4.66727 5.38984 4.66797 5.41797L4.66602 5.41699C4.34426 5.41734 4.08318 5.6782 4.08301 6C4.08318 6.3218 4.34426 6.58363 4.66602 6.58398C4.74589 6.58398 4.82222 6.5672 4.8916 6.53809C5.07698 7.01604 5.36922 7.44045 5.73926 7.78223C5.4254 7.9716 5.05916 8.08398 4.66602 8.08398C3.51583 8.08363 2.58318 7.15023 2.58301 6C2.58318 4.84977 3.51583 3.91734 4.66602 3.91699Z" fill="currentColor"/>
</svg>
