<svg width="16" height="16" viewBox="0 0 16 16" fill="none" xmlns="http://www.w3.org/2000/svg">
<path fill-rule="evenodd" clip-rule="evenodd" d="M8 2.5C4.96243 2.5 2.5 4.96243 2.5 8C2.5 11.0376 4.96243 13.5 8 13.5C11.0376 13.5 13.5 11.0376 13.5 8C13.5 7.72386 13.7239 7.5 14 7.5C14.2761 7.5 14.5 7.72386 14.5 8C14.5 11.5899 11.5899 14.5 8 14.5C4.41015 14.5 1.5 11.5899 1.5 8C1.5 4.41015 4.41015 1.5 8 1.5C9.84735 1.5 11.5143 2.27081 12.6973 3.50727V2C12.6973 1.72386 12.9212 1.5 13.1973 1.5C13.4735 1.5 13.6973 1.72386 13.6973 2V5C13.6973 5.27614 13.4735 5.5 13.1973 5.5H10.25C9.97386 5.5 9.75 5.27614 9.75 5C9.75 4.72386 9.97386 4.5 10.25 4.5H12.2429C11.2336 3.27788 9.70746 2.5 8 2.5Z" fill="currentColor"/>
</svg>
