<svg width="14" height="14" viewBox="0 0 14 14" fill="none" xmlns="http://www.w3.org/2000/svg">
<path d="M12.1006 9.17033L11.461 8.77867V8.77867L12.1006 9.17033ZM11.5438 10.0797L12.1834 10.4713L12.1834 10.4713L11.5438 10.0797ZM1.89939 4.82966L1.25978 4.438H1.25978L1.89939 4.82966ZM2.45621 3.92033L3.09582 4.31199L3.09582 4.31199L2.45621 3.92033ZM3.97747 3.53601L4.33605 2.87728L4.33605 2.87728L3.97747 3.53601ZM2.30701 6.26399L1.94843 6.92271H1.94843L2.30701 6.26399ZM10.0225 10.464L9.66395 11.1227H9.66395L10.0225 10.464ZM11.693 7.73601L11.3344 8.39473V8.39473L11.693 7.73601ZM2.45621 10.0797L1.8166 10.4713H1.8166L2.45621 10.0797ZM1.89939 9.17034L2.539 8.77868H2.539L1.89939 9.17034ZM11.5438 3.92034L12.1834 3.52868L12.1834 3.52868L11.5438 3.92034ZM12.1006 4.82967L11.461 5.22133V5.22133L12.1006 4.82967ZM11.693 6.26399L12.0516 6.92272L11.693 6.26399ZM10.0225 3.53601L10.3811 4.19474V4.19474L10.0225 3.53601ZM2.30701 7.73601L2.66559 8.39474H2.66559L2.30701 7.73601ZM3.97747 10.464L3.61889 9.80527L3.61888 9.80527L3.97747 10.464ZM9.96334 3.56824L9.60476 2.90951V2.90951L9.96334 3.56824ZM4.03667 3.56823L3.67808 4.22696L3.67809 4.22696L4.03667 3.56823ZM9.96334 10.4318L10.3219 9.77304L10.3219 9.77304L9.96334 10.4318ZM4.03667 10.4318L4.39524 11.0905L4.39525 11.0905L4.03667 10.4318ZM6.44318 1.75V2.5L7.55682 2.5V1.75V1L6.44318 1V1.75ZM7.55682 12.25V11.5H6.44318V12.25V13H7.55682V12.25ZM6.44318 12.25V11.5C6.20016 11.5 6.07954 11.3247 6.07954 11.2H5.32954H4.57954C4.57954 12.2351 5.45611 13 6.44318 13V12.25ZM8.67046 11.2H7.92046C7.92046 11.3247 7.79984 11.5 7.55682 11.5V12.25V13C8.54389 13 9.42046 12.2351 9.42046 11.2L8.67046 11.2ZM7.55682 1.75V2.5C7.79984 2.5 7.92046 2.67528 7.92046 2.8H8.67046H9.42046C9.42046 1.76492 8.54389 1 7.55682 1V1.75ZM6.44318 1.75V1C5.45611 1 4.57954 1.76492 4.57954 2.8L5.32954 2.8H6.07954C6.07954 2.67528 6.20016 2.5 6.44318 2.5V1.75ZM12.1006 9.17033L11.461 8.77867L10.9042 9.688L11.5438 10.0797L12.1834 10.4713L12.7402 9.56199L12.1006 9.17033ZM1.89939 4.82966L2.539 5.22132L3.09582 4.31199L2.45621 3.92033L1.8166 3.52867L1.25978 4.438L1.89939 4.82966ZM2.45621 3.92033L3.09582 4.31199C3.1848 4.16668 3.41996 4.08645 3.61889 4.19473L3.97747 3.53601L4.33605 2.87728C3.46968 2.40567 2.34266 2.66957 1.8166 3.52867L2.45621 3.92033ZM2.30701 6.26399L2.66559 5.60526C2.49006 5.50971 2.46725 5.33848 2.539 5.22132L1.89939 4.82966L1.25978 4.438C0.716473 5.32525 1.05866 6.43836 1.94843 6.92271L2.30701 6.26399ZM11.5438 10.0797L10.9042 9.688C10.8152 9.83331 10.58 9.91355 10.3811 9.80526L10.0225 10.464L9.66395 11.1227C10.5303 11.5943 11.6573 11.3304 12.1834 10.4713L11.5438 10.0797ZM12.1006 9.17033L12.7402 9.56199C13.2835 8.67474 12.9413 7.56163 12.0516 7.07728L11.693 7.73601L11.3344 8.39473C11.5099 8.49028 11.5327 8.66151 11.461 8.77867L12.1006 9.17033ZM2.45621 10.0797L3.09582 9.68801L2.539 8.77868L1.89939 9.17034L1.25977 9.562L1.8166 10.4713L2.45621 10.0797ZM11.5438 3.92034L10.9042 4.312L11.461 5.22133L12.1006 4.82967L12.7402 4.43801L12.1834 3.52868L11.5438 3.92034ZM12.1006 4.82967L11.461 5.22133C11.5327 5.33849 11.5099 5.50972 11.3344 5.60527L11.693 6.26399L12.0516 6.92272C12.9413 6.43837 13.2835 5.32526 12.7402 4.43801L12.1006 4.82967ZM10.0225 3.53601L10.3811 4.19474C10.58 4.08645 10.8152 4.16669 10.9042 4.312L11.5438 3.92034L12.1834 3.52868C11.6573 2.66958 10.5303 2.40568 9.66395 2.87729L10.0225 3.53601ZM1.89939 9.17034L2.539 8.77868C2.46725 8.66152 2.49006 8.49029 2.66559 8.39474L2.30701 7.73601L1.94842 7.07729C1.05866 7.56164 0.716472 8.67475 1.25978 9.562L1.89939 9.17034ZM2.45621 10.0797L1.8166 10.4713C2.34266 11.3304 3.46968 11.5943 4.33605 11.1227L3.97747 10.464L3.61888 9.80527C3.41996 9.91355 3.1848 9.83332 3.09582 9.68801L2.45621 10.0797ZM9.96334 3.56824L10.3219 4.22696L10.3811 4.19474L10.0225 3.53601L9.66395 2.87729L9.60476 2.90951L9.96334 3.56824ZM3.97747 3.53601L3.61889 4.19473L3.67808 4.22696L4.03667 3.56823L4.39525 2.90951L4.33605 2.87728L3.97747 3.53601ZM10.0225 10.464L10.3811 9.80526L10.3219 9.77304L9.96334 10.4318L9.60476 11.0905L9.66395 11.1227L10.0225 10.464ZM4.03667 10.4318L3.67809 9.77304L3.61889 9.80527L3.97747 10.464L4.33605 11.1227L4.39524 11.0905L4.03667 10.4318ZM2.30701 6.26399L1.94843 6.92271C1.9695 6.93419 1.97817 6.94542 1.98318 6.95422C1.98946 6.96526 1.99435 6.98107 1.99435 7C1.99435 7.01893 1.98946 7.03474 1.98318 7.04578C1.97817 7.05458 1.9695 7.06582 1.94842 7.07729L2.30701 7.73601L2.66559 8.39474C3.7706 7.79322 3.77061 6.20678 2.66559 5.60526L2.30701 6.26399ZM4.03667 10.4318L4.39525 11.0905C4.47833 11.0453 4.57954 11.1054 4.57954 11.2H5.32954H6.07954C6.07954 9.96738 4.7607 9.18372 3.67808 9.77304L4.03667 10.4318ZM8.67046 11.2L9.42046 11.2C9.42046 11.1054 9.52167 11.0453 9.60476 11.0905L9.96334 10.4318L10.3219 9.77304C9.23931 9.18371 7.92046 9.96737 7.92046 11.2H8.67046ZM11.693 7.73601L12.0516 7.07728C12.0305 7.06581 12.0218 7.05457 12.0168 7.04577C12.0105 7.03473 12.0057 7.01892 12.0057 7C12.0057 6.98108 12.0105 6.96527 12.0168 6.95423C12.0218 6.94543 12.0305 6.93419 12.0516 6.92272L11.693 6.26399L11.3344 5.60527C10.2294 6.20679 10.2294 7.79321 11.3344 8.39473L11.693 7.73601ZM4.03667 3.56823L3.67809 4.22696C4.7607 4.81628 6.07954 4.03262 6.07954 2.8H5.32954L4.57954 2.8C4.57954 2.89459 4.47833 2.95473 4.39525 2.90951L4.03667 3.56823ZM9.96334 3.56824L9.60476 2.90951C9.52167 2.95474 9.42046 2.8946 9.42046 2.8H8.67046H7.92046C7.92046 4.03262 9.2393 4.81629 10.3219 4.22696L9.96334 3.56824ZM8.75001 7H8.00001C8.00001 7.55228 7.55229 8 7 8V8.75V9.5C8.38072 9.5 9.50001 8.38071 9.50001 7H8.75001ZM7 8.75V8C6.44772 8 6 7.55228 6 7L5.25 7H4.5C4.5 8.38071 5.61929 9.5 7 9.5V8.75ZM5.25 7L6 7C6 6.44772 6.44772 6 7 6L7 5.25V4.5C5.61929 4.5 4.5 5.61929 4.5 7H5.25ZM7 5.25L7 6C7.55229 6 8.00001 6.44772 8.00001 7H8.75001H9.50001C9.50001 5.61929 8.38072 4.5 7 4.5V5.25Z" fill="#05194A"/>
</svg>
