<svg width="14" height="14" viewBox="0 0 14 14" fill="none" xmlns="http://www.w3.org/2000/svg">
<g clip-path="url(#clip0_2996_27295)">
<path d="M5.85243 1.90816C6.32183 0.919286 7.67808 0.919284 8.14748 1.90816L8.95873 3.61719C9.14513 4.00987 9.50544 4.28205 9.92224 4.34502L11.7362 4.61908C12.7858 4.77765 13.205 6.11874 12.4455 6.88847L11.1328 8.21876C10.8312 8.52443 10.6936 8.96482 10.7648 9.39642L11.0747 11.2748C11.254 12.3617 10.1567 13.1905 9.21793 12.6774L7.59544 11.7905C7.22264 11.5867 6.77727 11.5867 6.40448 11.7905L4.78199 12.6774C3.84319 13.1905 2.74596 12.3617 2.92525 11.2748L3.23512 9.39642C3.30632 8.96482 3.16869 8.52443 2.86709 8.21877L1.55447 6.88847C0.794964 6.11874 1.21407 4.77765 2.26368 4.61908L4.07768 4.34502C4.49448 4.28205 4.85479 4.00987 5.04119 3.61719L5.85243 1.90816Z" stroke="currentColor" stroke-width="1.5" stroke-linejoin="round"/>
</g>
<defs>
<clipPath id="clip0_2996_27295">
<rect width="14" height="14" fill="white"/>
</clipPath>
</defs>
</svg>
