<svg width="14" height="14" viewBox="0 0 14 14" fill="none" xmlns="http://www.w3.org/2000/svg">
<g clip-path="url(#clip0_2029_26872)">
<path d="M12.8333 6.99984C12.8333 3.77818 10.2217 1.1665 7 1.1665" stroke="#05194A" stroke-width="1.5" stroke-linecap="round"/>
<path d="M12.8333 6.99984C12.8333 10.2215 10.2216 12.8332 6.99996 12.8332C3.7783 12.8332 1.16663 10.2215 1.16663 6.99984C1.16663 3.77818 3.7783 1.1665 6.99996 1.1665" stroke="#05194A" stroke-width="1.5" stroke-linecap="round" stroke-linejoin="round" stroke-dasharray="0.5 3"/>
<path d="M7.875 7C7.875 7.48325 7.48325 7.875 7 7.875C6.51675 7.875 6.125 7.48325 6.125 7C6.125 6.51675 6.51675 6.125 7 6.125C7.48325 6.125 7.875 6.51675 7.875 7Z" stroke="#05194A" stroke-width="1.5"/>
<path d="M7.87504 7H9.33337M7.00004 3.5V6.125" stroke="#05194A" stroke-width="1.5" stroke-linecap="round" stroke-linejoin="round"/>
</g>
<defs>
<clipPath id="clip0_2029_26872">
<rect width="14" height="14" fill="white"/>
</clipPath>
</defs>
</svg>
