<svg width="44" height="44" viewBox="0 0 44 44" fill="none" xmlns="http://www.w3.org/2000/svg">
<path opacity="0.3" fill-rule="evenodd" clip-rule="evenodd" d="M0 22V32C0 38.6274 5.37258 44 12 44H22H32C38.6274 44 44 38.6274 44 32V22V12C44 5.37258 38.6274 0 32 0H22H12C5.37258 0 0 5.37258 0 12V22Z" fill="#FF9066"/>
<path opacity="0.78" fill-rule="evenodd" clip-rule="evenodd" d="M20.9866 17.5827C21.0066 17.3222 21.2238 17.1211 21.4851 17.1211H21.5474C21.8043 17.1211 22.0193 17.3157 22.0449 17.5713L22.4888 22.01L25.6591 23.8216C25.8148 23.9106 25.911 24.0763 25.911 24.2557V24.2887C25.911 24.6184 25.5975 24.8578 25.2794 24.7711L20.9319 23.5854C20.7005 23.5223 20.5465 23.3038 20.5649 23.0646L20.9866 17.5827Z" fill="#FF9066"/>
<path opacity="0.901274" fill-rule="evenodd" clip-rule="evenodd" d="M16.8329 11.1906C16.5688 10.8759 16.0589 10.9964 15.9635 11.396L14.8687 15.986C14.791 16.3117 15.0491 16.6202 15.3833 16.6012L20.1051 16.3337C20.516 16.3104 20.7244 15.8283 20.4599 15.5131L19.3098 14.1425C20.164 13.8506 21.0698 13.6981 21.9999 13.6981C26.59 13.6981 30.3111 17.4191 30.3111 22.0092C30.3111 26.5993 26.59 30.3204 21.9999 30.3204C17.4098 30.3204 13.6888 26.5993 13.6888 22.0092C13.6888 21.2387 13.7932 20.484 13.9966 19.7586L12.1138 19.2305C11.8659 20.1142 11.7333 21.0463 11.7333 22.0092C11.7333 27.6794 16.3298 32.2759 21.9999 32.2759C27.6701 32.2759 32.2666 27.6794 32.2666 22.0092C32.2666 16.3391 27.6701 11.7426 21.9999 11.7426C20.5737 11.7426 19.2154 12.0334 17.9811 12.559L16.8329 11.1906Z" fill="#FF9066"/>
</svg>
