<svg width="14" height="14" viewBox="0 0 14 14" fill="none" xmlns="http://www.w3.org/2000/svg">
<g clip-path="url(#clip0_2078_78075)">
<path d="M2.91667 4.6665L2.91667 10.4998C2.91667 11.7885 3.96134 12.8332 5.25 12.8332H8.75C10.0387 12.8332 11.0833 11.7885 11.0833 10.4998L11.0833 4.6665M8.16667 6.4165V9.9165M5.83333 6.4165L5.83333 9.9165M9.33333 2.9165L8.51301 1.68602C8.29663 1.36146 7.93236 1.1665 7.54229 1.1665L6.45771 1.1665C6.06764 1.1665 5.70337 1.36146 5.48699 1.68602L4.66667 2.9165M9.33333 2.9165L4.66667 2.9165M9.33333 2.9165L12.25 2.9165M4.66667 2.9165L1.75 2.9165" stroke="currentColor" stroke-width="1.5" stroke-linecap="round" stroke-linejoin="round"/>
</g>
<defs>
<clipPath id="clip0_2078_78075">
<rect width="14" height="14" fill="currentColor"/>
</clipPath>
</defs>
</svg>
