<svg width="16" height="16" viewBox="0 0 16 16" fill="none" xmlns="http://www.w3.org/2000/svg">
<path d="M12.6667 13.333V14.6663H3.33334V13.333H12.6667ZM10.6667 8.80967C10.6447 9.24966 10.5141 9.67736 10.2865 10.0545C10.0589 10.4317 9.74139 10.7467 9.36236 10.9712C8.98332 11.1957 8.55457 11.3228 8.11442 11.3411C7.67426 11.3595 7.23642 11.2685 6.84001 11.0763C6.3831 10.8787 5.99561 10.5491 5.72719 10.1298C5.45876 9.71056 5.32163 9.2207 5.33334 8.72301V3.33634H4.00001V8.80967C4.02256 9.43728 4.19258 10.0508 4.49629 10.6004C4.8 11.1501 5.22887 11.6206 5.74819 11.9737C6.26751 12.3269 6.86268 12.5528 7.48553 12.6331C8.10837 12.7135 8.74139 12.6461 9.33334 12.4363C10.1208 12.1739 10.8039 11.6671 11.2835 10.9897C11.7631 10.3123 12.0141 9.49955 12 8.66967V3.33634H10.6667V8.80967ZM10.6667 3.33301H12H10.6667ZM5.33334 3.33301H4.00001H5.33334Z" fill="#05194A"/>
</svg>
