<svg width="8" height="8" viewBox="0 0 8 8" fill="none" xmlns="http://www.w3.org/2000/svg">
<path fill-rule="evenodd" clip-rule="evenodd" d="M6.47488 7.18196C6.67014 7.37722 6.98672 7.37722 7.18198 7.18196C7.37725 6.9867 7.37725 6.67012 7.18198 6.47486L4.70712 3.99999L7.18198 1.52514C7.37724 1.32988 7.37724 1.01329 7.18198 0.818031C6.98672 0.622768 6.67013 0.622768 6.47487 0.818031L4.00001 3.29289L1.52513 0.818001C1.32987 0.622739 1.01328 0.622739 0.818022 0.818001C0.62276 1.01326 0.62276 1.32985 0.818022 1.52511L3.29291 3.99999L0.818017 6.47488C0.622754 6.67015 0.622754 6.98673 0.818017 7.18199C1.01328 7.37725 1.32986 7.37725 1.52512 7.18199L4.00001 4.7071L6.47488 7.18196Z" fill="currentColor"/>
</svg>
