<svg xmlns="http://www.w3.org/2000/svg" width="6" height="6" viewBox="0 0 6 6" fill="none">
  <path fill-rule="evenodd" clip-rule="evenodd" d="M5.16548 5.78421C5.33633 5.95506 5.61334 5.95506 5.7842 5.78421C5.95505 5.61335 5.95505 5.33634 5.7842 5.16549L3.61869 2.99998L5.78419 0.834486C5.95505 0.663631 5.95505 0.386622 5.78419 0.215767C5.61334 0.0449128 5.33633 0.0449128 5.16547 0.215767L2.99997 2.38127L0.83445 0.215742C0.663595 0.044887 0.386586 0.0448872 0.215731 0.215742C0.044877 0.386596 0.0448768 0.663605 0.215731 0.83446L2.38126 2.99998L0.215726 5.16551C0.0448717 5.33637 0.0448719 5.61338 0.215726 5.78423C0.386581 5.95509 0.66359 5.95509 0.834445 5.78423L2.99997 3.6187L5.16548 5.78421Z" fill="currentColor"/>
</svg>