<svg width="16" height="16" viewBox="0 0 16 16" fill="none" xmlns="http://www.w3.org/2000/svg">
<path opacity="0.4" d="M12 1.3335L4.00004 1.3335C2.52728 1.3335 1.33337 2.5274 1.33337 4.00016L1.33337 12.0001C1.33337 13.4729 2.52728 14.6668 4.00004 14.6668L12 14.6668C13.4728 14.6668 14.6667 13.4729 14.6667 12.0001L14.6667 4.00016C14.6667 2.5274 13.4728 1.3335 12 1.3335Z" fill="currentColor"/>
<path d="M10.8731 10.2635C9.99865 9.49388 9.02549 8.6665 7.99995 8.6665C6.97441 8.6665 6.00126 9.49388 5.12685 10.2635C4.83529 10.5201 4.66663 10.8899 4.66663 11.2783V11.3332C4.66663 12.0695 5.26358 12.6665 5.99996 12.6665H9.99995C10.7363 12.6665 11.3333 12.0695 11.3333 11.3332V11.2783C11.3333 10.8899 11.1646 10.5201 10.8731 10.2635Z" fill="currentColor"/>
<path d="M9.99999 5.3335C9.99999 4.22893 9.10456 3.3335 8 3.3335C6.89543 3.3335 6 4.22893 6 5.3335C6 6.43807 6.89543 7.3335 8 7.3335C9.10456 7.3335 9.99999 6.43807 9.99999 5.3335Z" fill="currentColor"/>
</svg>
