<svg width="12" height="12" viewBox="0 0 12 12" fill="none" xmlns="http://www.w3.org/2000/svg">
<g id="align-center">
<path id="combo shape" fill-rule="evenodd" clip-rule="evenodd" d="M3.5 0.708496C3.15482 0.708496 2.875 0.988318 2.875 1.3335C2.875 1.67867 3.15482 1.9585 3.5 1.9585H8.5C8.84518 1.9585 9.125 1.67867 9.125 1.3335C9.125 0.988318 8.84518 0.708496 8.5 0.708496H3.5ZM1 4.04183C0.654822 4.04183 0.375 4.32165 0.375 4.66683C0.375 5.01201 0.654822 5.29183 1 5.29183H11C11.3452 5.29183 11.625 5.01201 11.625 4.66683C11.625 4.32165 11.3452 4.04183 11 4.04183H1ZM2.875 8.00016C2.875 7.65498 3.15482 7.37516 3.5 7.37516H8.5C8.84518 7.37516 9.125 7.65498 9.125 8.00016C9.125 8.34534 8.84518 8.62516 8.5 8.62516H3.5C3.15482 8.62516 2.875 8.34534 2.875 8.00016ZM1 10.7085C0.654822 10.7085 0.375 10.9883 0.375 11.3335C0.375 11.6787 0.654822 11.9585 1 11.9585H11C11.3452 11.9585 11.625 11.6787 11.625 11.3335C11.625 10.9883 11.3452 10.7085 11 10.7085H1Z" fill="#28303F"/>
</g>
</svg>
